
<svg width="28" height="12" viewBox="0 0 28 12" fill="none" xmlns="http://www.w3.org/2000/svg">
<path d="M1 5.47656C0.585786 5.47656 0.25 5.81235 0.25 6.22656C0.25 6.64078 0.585786 6.97656 1 6.97656L1 5.47656ZM27.5303 6.75689C27.8232 6.464 27.8232 5.98912 27.5303 5.69623L22.7574 0.92326C22.4645 0.630366 21.9896 0.630366 21.6967 0.92326C21.4038 1.21615 21.4038 1.69103 21.6967 1.98392L25.9393 6.22656L21.6967 10.4692C21.4038 10.7621 21.4038 11.237 21.6967 11.5299C21.9896 11.8228 22.4645 11.8228 22.7574 11.5299L27.5303 6.75689ZM1 6.97656L27 6.97656L27 5.47656L1 5.47656L1 6.97656Z" fill="#66A5C4"/>
</svg>
