<svg width="24" height="24" viewBox="0 0 24 24" fill="none" xmlns="http://www.w3.org/2000/svg">
<path d="M6.92063 12.4999L12.3589 17.9384C12.4564 18.0357 12.5074 18.1505 12.5119 18.2827C12.5164 18.4147 12.4635 18.5358 12.3531 18.6462C12.243 18.7525 12.125 18.8067 11.9994 18.8087C11.8737 18.8105 11.7558 18.7563 11.6456 18.6462L5.56488 12.5654C5.47754 12.4781 5.41629 12.3889 5.38113 12.2979C5.34579 12.2069 5.32812 12.1076 5.32812 11.9999C5.32812 11.8922 5.34579 11.7929 5.38113 11.7019C5.41629 11.6109 5.47754 11.5217 5.56488 11.4344L11.6456 5.35366C11.7391 5.26016 11.8529 5.21016 11.9869 5.20366C12.1209 5.19733 12.243 5.24733 12.3531 5.35366C12.4635 5.46399 12.5186 5.58291 12.5186 5.71041C12.5186 5.83807 12.4635 5.95699 12.3531 6.06716L6.92063 11.4999H18.4994C18.6417 11.4999 18.7606 11.5477 18.8561 11.6432C18.9516 11.7387 18.9994 11.8576 18.9994 11.9999C18.9994 12.1422 18.9516 12.2612 18.8561 12.3567C18.7606 12.4522 18.6417 12.4999 18.4994 12.4999H6.92063Z" fill="black"/>
</svg>