<svg width="14" height="14" viewBox="0 0 14 14" fill="none" xmlns="http://www.w3.org/2000/svg">
<path d="M1.9216 7.50003L7.35985 12.9385C7.45735 13.0359 7.50835 13.1506 7.51285 13.2828C7.51735 13.4148 7.46444 13.5359 7.3541 13.6463C7.24394 13.7526 7.12602 13.8068 7.00035 13.8088C6.87469 13.8106 6.75677 13.7564 6.6466 13.6463L0.565852 7.56553C0.478518 7.4782 0.417268 7.38903 0.382102 7.29803C0.346768 7.20703 0.329102 7.1077 0.329102 7.00003C0.329102 6.89236 0.346768 6.79303 0.382102 6.70203C0.417268 6.61103 0.478518 6.52186 0.565852 6.43453L6.6466 0.353781C6.7401 0.260281 6.85385 0.210281 6.98785 0.203781C7.12185 0.197448 7.24394 0.247448 7.3541 0.353781C7.46444 0.464114 7.5196 0.58303 7.5196 0.71053C7.5196 0.838197 7.46444 0.957114 7.3541 1.06728L1.9216 6.50003H13.5004C13.6427 6.50003 13.7616 6.54778 13.8571 6.64328C13.9526 6.73878 14.0004 6.8577 14.0004 7.00003C14.0004 7.14236 13.9526 7.26128 13.8571 7.35678C13.7616 7.45228 13.6427 7.50003 13.5004 7.50003H1.9216Z" fill="black"/>
</svg>
