<svg width="14" height="14" viewBox="0 0 14 14" fill="none" xmlns="http://www.w3.org/2000/svg">
<path d="M1.92063 7.49991L7.35888 12.9384C7.45638 13.0357 7.50738 13.1505 7.51188 13.2827C7.51638 13.4147 7.46346 13.5358 7.35313 13.6462C7.24296 13.7525 7.12504 13.8067 6.99938 13.8087C6.87371 13.8105 6.75579 13.7563 6.64563 13.6462L0.564875 7.56541C0.477542 7.47808 0.416292 7.38891 0.381125 7.29791C0.345792 7.20691 0.328125 7.10758 0.328125 6.99991C0.328125 6.89224 0.345792 6.79291 0.381125 6.70191C0.416292 6.61091 0.477542 6.52174 0.564875 6.43441L6.64563 0.353659C6.73913 0.260159 6.85288 0.210159 6.98688 0.203659C7.12088 0.197326 7.24296 0.247326 7.35313 0.353659C7.46346 0.463992 7.51862 0.582908 7.51862 0.710408C7.51862 0.838075 7.46346 0.956992 7.35313 1.06716L1.92063 6.49991H13.4994C13.6417 6.49991 13.7606 6.54766 13.8561 6.64316C13.9516 6.73866 13.9994 6.85758 13.9994 6.99991C13.9994 7.14224 13.9516 7.26116 13.8561 7.35666C13.7606 7.45216 13.6417 7.49991 13.4994 7.49991H1.92063Z" fill="black"/>
</svg>
