<svg width="344" height="275" viewBox="0 0 344 275" fill="none" xmlns="http://www.w3.org/2000/svg">
<path d="M343.7 19.7001H0.200012V64.3001H343.7V19.7001Z" fill="#97D4FF"/>
<path d="M331.9 52.5H12V274.1H331.9V52.5Z" fill="#D6D6FF"/>
<path d="M331.9 47.3H12V268.9H331.9V47.3Z" fill="white"/>
<path d="M343.7 25H0.200012V69.6H343.7V25Z" fill="#66A5C4"/>
<path d="M88 47.3001C88 53.8001 82.7 59.1001 76.2 59.1001C69.7 59.1001 64.4 53.8001 64.4 47.3001C64.4 40.8001 69.7 35.5 76.2 35.5C82.7 35.4 88 40.7001 88 47.3001Z" fill="white"/>
<path d="M279.4 47.3001C279.4 53.8001 274.1 59.1001 267.6 59.1001C261.1 59.1001 255.8 53.8001 255.8 47.3001C255.8 40.8001 261.1 35.5 267.6 35.5C274.1 35.4 279.4 40.7001 279.4 47.3001Z" fill="white"/>
<path d="M76.3 52.1H75.7C72.1 52.1 69.2 49.2 69.2 45.6V7.40002C69.2 3.80002 72.1 0.900024 75.7 0.900024H76.3C79.9 0.900024 82.8 3.80002 82.8 7.40002V45.6C82.8 49.2 79.9 52.1 76.3 52.1Z" fill="#DFDFDF"/>
<path d="M267.9 52.1H267.3C263.7 52.1 260.8 49.2 260.8 45.6V7.40002C260.8 3.80002 263.7 0.900024 267.3 0.900024H267.9C271.5 0.900024 274.4 3.80002 274.4 7.40002V45.6C274.4 49.2 271.5 52.1 267.9 52.1Z" fill="#DFDFDF"/>
<path d="M57.1 91.2001H21.7V126.6H57.1V91.2001Z" fill="#F2F2F2"/>
<path d="M101.2 91.2001H65.8V126.6H101.2V91.2001Z" fill="#F2F2F2"/>
<path d="M145.3 91.2001H109.9V126.6H145.3V91.2001Z" fill="#F2F2F2"/>
<path d="M189.3 91.2001H153.9V126.6H189.3V91.2001Z" fill="#F2F2F2"/>
<path d="M233.4 91.2001H198V126.6H233.4V91.2001Z" fill="#F2F2F2"/>
<path d="M277.5 91.2001H242.1V126.6H277.5V91.2001Z" fill="#F2F2F2"/>
<path d="M321.6 91.2001H286.2V126.6H321.6V91.2001Z" fill="#F2F2F2"/>
<path d="M57.1 134.1H21.7V169.5H57.1V134.1Z" fill="#F2F2F2"/>
<path d="M101.2 134.1H65.8V169.5H101.2V134.1Z" fill="#F2F2F2"/>
<path d="M145.3 134.1H109.9V169.5H145.3V134.1Z" fill="#F2F2F2"/>
<path d="M189.3 134.1H153.9V169.5H189.3V134.1Z" fill="#F2F2F2"/>
<path d="M233.4 134.1H198V169.5H233.4V134.1Z" fill="#F2F2F2"/>
<path d="M277.5 134.1H242.1V169.5H277.5V134.1Z" fill="#F2F2F2"/>
<path d="M321.6 134.1H286.2V169.5H321.6V134.1Z" fill="#F2F2F2"/>
<path d="M57.1 177H21.7V212.4H57.1V177Z" fill="#F2F2F2"/>
<path d="M101.2 177H65.8V212.4H101.2V177Z" fill="#F2F2F2"/>
<path d="M145.3 177H109.9V212.4H145.3V177Z" fill="#F2F2F2"/>
<path d="M189.3 177H153.9V212.4H189.3V177Z" fill="#F2F2F2"/>
<path d="M233.4 177H198V212.4H233.4V177Z" fill="#F2F2F2"/>
<path d="M277.5 177H242.1V212.4H277.5V177Z" fill="#F2F2F2"/>
<path d="M321.6 177H286.2V212.4H321.6V177Z" fill="#F2F2F2"/>
<path d="M57.1 220H21.7V255.4H57.1V220Z" fill="#F2F2F2"/>
<path d="M101.2 220H65.8V255.4H101.2V220Z" fill="#F2F2F2"/>
<path d="M145.3 220H109.9V255.4H145.3V220Z" fill="#F2F2F2"/>
<path d="M97 187.85C97 195.306 90.956 201.35 83.5 201.35C76.0442 201.35 70 195.306 70 187.85C70 180.394 76.0442 174.35 83.5 174.35C90.956 174.35 97 180.394 97 187.85Z" fill="#AE4227"/>
<path d="M97 186.5C97 193.956 90.9561 200 83.5 200C76.0442 200 70 193.956 70 186.5C70 179.044 76.0442 173 83.5 173C90.9561 173 97 179.044 97 186.5Z" fill="#CC4E2E"/>
<rect width="15.6888" height="4.56924" transform="matrix(0.719654 -0.694333 0.702407 0.711776 76 190.893)" fill="#ECF0F1"/>
<rect width="15.6806" height="4.57163" transform="matrix(0.686761 0.726883 -0.734568 0.678535 79.3582 180)" fill="#ECF0F1"/>
<path d="M229 187.85C229 195.306 222.956 201.35 215.5 201.35C208.044 201.35 202 195.306 202 187.85C202 180.394 208.044 174.35 215.5 174.35C222.956 174.35 229 180.394 229 187.85Z" fill="#AE4227"/>
<path d="M229 186.5C229 193.956 222.956 200 215.5 200C208.044 200 202 193.956 202 186.5C202 179.044 208.044 173 215.5 173C222.956 173 229 179.044 229 186.5Z" fill="#CC4E2E"/>
<rect width="15.6888" height="4.56924" transform="matrix(0.719654 -0.694333 0.702407 0.711776 208 190.893)" fill="#ECF0F1"/>
<rect width="15.6806" height="4.57163" transform="matrix(0.686761 0.726883 -0.734568 0.678535 211.358 180)" fill="#ECF0F1"/>
<path d="M317 144.5C317 151.956 310.956 158 303.5 158C296.044 158 290 151.956 290 144.5C290 137.044 296.044 131 303.5 131C310.956 131 317 137.044 317 144.5Z" fill="#AE4227"/>
<path d="M317 143.5C317 150.956 310.956 157 303.5 157C296.044 157 290 150.956 290 143.5C290 136.044 296.044 130 303.5 130C310.956 130 317 136.044 317 143.5Z" fill="#CC4E2E"/>
<rect width="15.6888" height="4.56924" transform="matrix(0.719654 -0.694333 0.702407 0.711776 296 147.893)" fill="#ECF0F1"/>
<rect width="15.6806" height="4.57163" transform="matrix(0.686761 0.726883 -0.734568 0.678535 299.358 137)" fill="#ECF0F1"/>
<path d="M141 101.85C141 109.306 134.956 115.35 127.5 115.35C120.044 115.35 114 109.306 114 101.85C114 94.3942 120.044 88.35 127.5 88.35C134.956 88.35 141 94.3942 141 101.85Z" fill="#AE4227"/>
<path d="M141 100.5C141 107.956 134.956 114 127.5 114C120.044 114 114 107.956 114 100.5C114 93.0442 120.044 87 127.5 87C134.956 87 141 93.0442 141 100.5Z" fill="#CC4E2E"/>
<rect width="15.6888" height="4.56924" transform="matrix(0.719654 -0.694333 0.702407 0.711776 120 104.893)" fill="#ECF0F1"/>
<rect width="15.6806" height="4.57163" transform="matrix(0.686761 0.726883 -0.734568 0.678535 123.358 94)" fill="#ECF0F1"/>
</svg>
