
<svg width="21" height="21" viewBox="0 0 21 21" fill="none" xmlns="http://www.w3.org/2000/svg">
<g clip-path="url(#clip0_1455_5211)">
<path d="M16.6072 2.16667H15.7802V1.33333C15.7802 1.11232 15.6931 0.900358 15.538 0.744078C15.3829 0.587797 15.1726 0.5 14.9533 0.5C14.7339 0.5 14.5236 0.587797 14.3685 0.744078C14.2134 0.900358 14.1263 1.11232 14.1263 1.33333V2.16667H7.5104V1.33333C7.5104 1.11232 7.42328 0.900358 7.26819 0.744078C7.1131 0.587797 6.90275 0.5 6.68342 0.5C6.46409 0.5 6.25374 0.587797 6.09865 0.744078C5.94356 0.900358 5.85644 1.11232 5.85644 1.33333V2.16667H5.02945C3.93321 2.16799 2.88224 2.6074 2.10707 3.38852C1.33191 4.16963 0.895844 5.22867 0.894531 6.33333L0.894531 16.3333C0.895844 17.438 1.33191 18.497 2.10707 19.2782C2.88224 20.0593 3.93321 20.4987 5.02945 20.5H16.6072C17.7035 20.4987 18.7544 20.0593 19.5296 19.2782C20.3048 18.497 20.7408 17.438 20.7421 16.3333V6.33333C20.7408 5.22867 20.3048 4.16963 19.5296 3.38852C18.7544 2.6074 17.7035 2.16799 16.6072 2.16667ZM2.5485 6.33333C2.5485 5.67029 2.80988 5.03441 3.27515 4.56557C3.74042 4.09673 4.37146 3.83333 5.02945 3.83333H16.6072C17.2652 3.83333 17.8963 4.09673 18.3615 4.56557C18.8268 5.03441 19.0882 5.67029 19.0882 6.33333V7.16667H2.5485V6.33333ZM16.6072 18.8333H5.02945C4.37146 18.8333 3.74042 18.5699 3.27515 18.1011C2.80988 17.6323 2.5485 16.9964 2.5485 16.3333V8.83333H19.0882V16.3333C19.0882 16.9964 18.8268 17.6323 18.3615 18.1011C17.8963 18.5699 17.2652 18.8333 16.6072 18.8333Z" fill="#747688"/>
<path d="M10.8186 14.25C11.5037 14.25 12.0591 13.6904 12.0591 13C12.0591 12.3096 11.5037 11.75 10.8186 11.75C10.1335 11.75 9.57812 12.3096 9.57812 13C9.57812 13.6904 10.1335 14.25 10.8186 14.25Z" fill="#747688"/>
<path d="M6.68188 14.25C7.36698 14.25 7.92236 13.6904 7.92236 13C7.92236 12.3096 7.36698 11.75 6.68188 11.75C5.99679 11.75 5.44141 12.3096 5.44141 13C5.44141 13.6904 5.99679 14.25 6.68188 14.25Z" fill="#747688"/>
<path d="M14.9553 14.25C15.6404 14.25 16.1958 13.6904 16.1958 13C16.1958 12.3096 15.6404 11.75 14.9553 11.75C14.2702 11.75 13.7148 12.3096 13.7148 13C13.7148 13.6904 14.2702 14.25 14.9553 14.25Z" fill="#747688"/>
</g>
<defs>
<clipPath id="clip0_1455_5211">
<rect width="19.8476" height="20" fill="white" transform="translate(0.894531 0.5)"/>
</clipPath>
</defs>
</svg>
