
<svg width="20" height="21" viewBox="0 0 20 21" fill="none" xmlns="http://www.w3.org/2000/svg">
<g clip-path="url(#clip0_1455_5182)">
<path d="M15.8333 2.39323H15V1.5599C15 1.33888 14.9122 1.12692 14.7559 0.97064C14.5996 0.81436 14.3877 0.726563 14.1667 0.726562C13.9457 0.726563 13.7337 0.81436 13.5774 0.97064C13.4211 1.12692 13.3333 1.33888 13.3333 1.5599V2.39323H6.66667V1.5599C6.66667 1.33888 6.57887 1.12692 6.42259 0.97064C6.26631 0.81436 6.05435 0.726563 5.83333 0.726562C5.61232 0.726563 5.40036 0.81436 5.24408 0.97064C5.0878 1.12692 5 1.33888 5 1.5599V2.39323H4.16667C3.062 2.39455 2.00296 2.83396 1.22185 3.61508C0.440735 4.39619 0.00132321 5.45523 0 6.5599L0 16.5599C0.00132321 17.6646 0.440735 18.7236 1.22185 19.5047C2.00296 20.2858 3.062 20.7252 4.16667 20.7266H15.8333C16.938 20.7252 17.997 20.2858 18.7782 19.5047C19.5593 18.7236 19.9987 17.6646 20 16.5599V6.5599C19.9987 5.45523 19.5593 4.39619 18.7782 3.61508C17.997 2.83396 16.938 2.39455 15.8333 2.39323ZM1.66667 6.5599C1.66667 5.89685 1.93006 5.26097 2.3989 4.79213C2.86774 4.32329 3.50363 4.0599 4.16667 4.0599H15.8333C16.4964 4.0599 17.1323 4.32329 17.6011 4.79213C18.0699 5.26097 18.3333 5.89685 18.3333 6.5599V7.39323H1.66667V6.5599ZM15.8333 19.0599H4.16667C3.50363 19.0599 2.86774 18.7965 2.3989 18.3277C1.93006 17.8588 1.66667 17.2229 1.66667 16.5599V9.0599H18.3333V16.5599C18.3333 17.2229 18.0699 17.8588 17.6011 18.3277C17.1323 18.7965 16.4964 19.0599 15.8333 19.0599Z" fill="#66A5C4"/>
<path d="M10 14.4766C10.6904 14.4766 11.25 13.9169 11.25 13.2266C11.25 12.5362 10.6904 11.9766 10 11.9766C9.30964 11.9766 8.75 12.5362 8.75 13.2266C8.75 13.9169 9.30964 14.4766 10 14.4766Z" fill="#66A5C4"/>
<path d="M5.83203 14.4766C6.52239 14.4766 7.08203 13.9169 7.08203 13.2266C7.08203 12.5362 6.52239 11.9766 5.83203 11.9766C5.14168 11.9766 4.58203 12.5362 4.58203 13.2266C4.58203 13.9169 5.14168 14.4766 5.83203 14.4766Z" fill="#66A5C4"/>
<path d="M14.168 14.4766C14.8583 14.4766 15.418 13.9169 15.418 13.2266C15.418 12.5362 14.8583 11.9766 14.168 11.9766C13.4776 11.9766 12.918 12.5362 12.918 13.2266C12.918 13.9169 13.4776 14.4766 14.168 14.4766Z" fill="#66A5C4"/>
</g>
<defs>
<clipPath id="clip0_1455_5182">
<rect width="20" height="20" fill="white" transform="translate(0 0.726562)"/>
</clipPath>
</defs>
</svg>
