
<svg width="19" height="19" viewBox="0 0 19 19" fill="none" xmlns="http://www.w3.org/2000/svg">
<mask id="mask0_1340_7940" style="mask-type:luminance" maskUnits="userSpaceOnUse" x="0" y="0" width="19" height="19">
<path d="M18.1248 0.921875H0.5625V18.6857H18.1248V0.921875Z" fill="white"/>
</mask>
<g mask="url(#mask0_1340_7940)">
<path d="M14.466 2.40215H13.7342V1.66207C13.7342 1.46578 13.6572 1.27748 13.5198 1.1387C13.3826 0.999811 13.1965 0.921875 13.0024 0.921875C12.8084 0.921875 12.6223 0.999811 12.485 1.1387C12.3478 1.27748 12.2707 1.46578 12.2707 1.66207V2.40215H6.41656V1.66207C6.41656 1.46578 6.33951 1.27748 6.2023 1.1387C6.06498 0.999811 5.87893 0.921875 5.68487 0.921875C5.49081 0.921875 5.30465 0.999811 5.16744 1.1387C5.03013 1.27748 4.95307 1.46578 4.95307 1.66207V2.40215H4.22127C3.25129 2.40337 2.32136 2.79362 1.63545 3.48741C0.94953 4.18119 0.563707 5.12179 0.5625 6.10302V14.9852C0.563707 15.9656 0.94953 16.9071 1.63545 17.601C2.32136 18.2937 3.25129 18.6845 4.22127 18.6857H14.466C15.436 18.6845 16.3659 18.2937 17.0518 17.601C17.7378 16.9071 18.1236 15.9656 18.1248 14.9852V6.10302C18.1236 5.12179 17.7378 4.18119 17.0518 3.48741C16.3659 2.79362 15.436 2.40337 14.466 2.40215ZM2.02599 6.10302C2.02599 5.51404 2.25726 4.94926 2.66899 4.53292C3.08071 4.11647 3.63908 3.88254 4.22127 3.88254H14.466C15.0482 3.88254 15.6066 4.11647 16.0183 4.53292C16.43 4.94926 16.6613 5.51404 16.6613 6.10302V6.84309H2.02599V6.10302ZM14.466 17.2057H4.22127C3.63908 17.2057 3.08071 16.9715 2.66899 16.5551C2.25726 16.1388 2.02599 15.5737 2.02599 14.9852V8.32349H16.6613V14.9852C16.6613 15.5737 16.43 16.1388 16.0183 16.5551C15.6066 16.9715 15.0482 17.2057 14.466 17.2057Z" fill="white"/>
<path d="M9.34374 13.1345C9.94997 13.1345 10.4414 12.6371 10.4414 12.0243C10.4414 11.4111 9.94997 10.9141 9.34374 10.9141C8.73751 10.9141 8.24609 11.4111 8.24609 12.0243C8.24609 12.6371 8.73751 13.1345 9.34374 13.1345Z" fill="white"/>
<path d="M5.68553 13.1345C6.29176 13.1345 6.78318 12.6371 6.78318 12.0243C6.78318 11.4111 6.29176 10.9141 5.68553 10.9141C5.07931 10.9141 4.58789 11.4111 4.58789 12.0243C4.58789 12.6371 5.07931 13.1345 5.68553 13.1345Z" fill="white"/>
<path d="M13.0019 13.1345C13.6082 13.1345 14.0996 12.6371 14.0996 12.0243C14.0996 11.4111 13.6082 10.9141 13.0019 10.9141C12.3957 10.9141 11.9043 11.4111 11.9043 12.0243C11.9043 12.6371 12.3957 13.1345 13.0019 13.1345Z" fill="white"/>
</g>
</svg>
