
<svg width="16" height="19" viewBox="0 0 16 19" fill="none" xmlns="http://www.w3.org/2000/svg">
<path d="M1.6155 19.0003C1.15517 19.0003 0.770833 18.8461 0.4625 18.5378C0.154167 18.2294 0 17.8451 0 17.3848V4.61578C0 4.15545 0.154167 3.77111 0.4625 3.46278C0.770833 3.15445 1.15517 3.00028 1.6155 3.00028H3.3845V1.30803C3.3845 1.15286 3.4355 1.02428 3.5375 0.922281C3.6395 0.820448 3.768 0.769531 3.923 0.769531C4.07817 0.769531 4.20675 0.820448 4.30875 0.922281C4.41058 1.02428 4.4615 1.15286 4.4615 1.30803V3.00028H11.6155V1.26953C11.6155 1.1272 11.6632 1.00828 11.7587 0.912781C11.8542 0.817281 11.9732 0.769531 12.1155 0.769531C12.2577 0.769531 12.3765 0.817281 12.472 0.912781C12.5677 1.00828 12.6155 1.1272 12.6155 1.26953V3.00028H14.3845C14.8448 3.00028 15.2292 3.15445 15.5375 3.46278C15.8458 3.77111 16 4.15545 16 4.61578V17.3848C16 17.8451 15.8458 18.2294 15.5375 18.5378C15.2292 18.8461 14.8448 19.0003 14.3845 19.0003H1.6155ZM1.6155 18.0003H14.3845C14.5385 18.0003 14.6796 17.9362 14.8077 17.808C14.9359 17.6799 15 17.5388 15 17.3848V8.61578H1V17.3848C1 17.5388 1.06408 17.6799 1.19225 17.808C1.32042 17.9362 1.4615 18.0003 1.6155 18.0003ZM1 7.61553H15V4.61578C15 4.46178 14.9359 4.3207 14.8077 4.19253C14.6796 4.06436 14.5385 4.00028 14.3845 4.00028H1.6155C1.4615 4.00028 1.32042 4.06436 1.19225 4.19253C1.06408 4.3207 1 4.46178 1 4.61578V7.61553ZM8 12.154C7.79367 12.154 7.61383 12.0774 7.4605 11.9243C7.30733 11.7711 7.23075 11.5913 7.23075 11.3848C7.23075 11.1784 7.30733 10.9987 7.4605 10.8455C7.61383 10.6924 7.79367 10.6158 8 10.6158C8.20633 10.6158 8.38617 10.6924 8.5395 10.8455C8.69267 10.9987 8.76925 11.1784 8.76925 11.3848C8.76925 11.5913 8.69267 11.7711 8.5395 11.9243C8.38617 12.0774 8.20633 12.154 8 12.154ZM4 12.154C3.79367 12.154 3.61383 12.0774 3.4605 11.9243C3.30733 11.7711 3.23075 11.5913 3.23075 11.3848C3.23075 11.1784 3.30733 10.9987 3.4605 10.8455C3.61383 10.6924 3.79367 10.6158 4 10.6158C4.20633 10.6158 4.38617 10.6924 4.5395 10.8455C4.69267 10.9987 4.76925 11.1784 4.76925 11.3848C4.76925 11.5913 4.69267 11.7711 4.5395 11.9243C4.38617 12.0774 4.20633 12.154 4 12.154ZM12 12.154C11.7937 12.154 11.6138 12.0774 11.4605 11.9243C11.3073 11.7711 11.2308 11.5913 11.2308 11.3848C11.2308 11.1784 11.3073 10.9987 11.4605 10.8455C11.6138 10.6924 11.7937 10.6158 12 10.6158C12.2063 10.6158 12.3862 10.6924 12.5395 10.8455C12.6927 10.9987 12.7693 11.1784 12.7693 11.3848C12.7693 11.5913 12.6927 11.7711 12.5395 11.9243C12.3862 12.0774 12.2063 12.154 12 12.154ZM8 16.0003C7.79367 16.0003 7.61383 15.9237 7.4605 15.7705C7.30733 15.6174 7.23075 15.4375 7.23075 15.231C7.23075 15.0247 7.30733 14.8449 7.4605 14.6915C7.61383 14.5384 7.79367 14.4618 8 14.4618C8.20633 14.4618 8.38617 14.5384 8.5395 14.6915C8.69267 14.8449 8.76925 15.0247 8.76925 15.231C8.76925 15.4375 8.69267 15.6174 8.5395 15.7705C8.38617 15.9237 8.20633 16.0003 8 16.0003ZM4 16.0003C3.79367 16.0003 3.61383 15.9237 3.4605 15.7705C3.30733 15.6174 3.23075 15.4375 3.23075 15.231C3.23075 15.0247 3.30733 14.8449 3.4605 14.6915C3.61383 14.5384 3.79367 14.4618 4 14.4618C4.20633 14.4618 4.38617 14.5384 4.5395 14.6915C4.69267 14.8449 4.76925 15.0247 4.76925 15.231C4.76925 15.4375 4.69267 15.6174 4.5395 15.7705C4.38617 15.9237 4.20633 16.0003 4 16.0003ZM12 16.0003C11.7937 16.0003 11.6138 15.9237 11.4605 15.7705C11.3073 15.6174 11.2308 15.4375 11.2308 15.231C11.2308 15.0247 11.3073 14.8449 11.4605 14.6915C11.6138 14.5384 11.7937 14.4618 12 14.4618C12.2063 14.4618 12.3862 14.5384 12.5395 14.6915C12.6927 14.8449 12.7693 15.0247 12.7693 15.231C12.7693 15.4375 12.6927 15.6174 12.5395 15.7705C12.3862 15.9237 12.2063 16.0003 12 16.0003Z" fill="url(#paint0_linear_1056_2526)"/>
<defs>
<linearGradient id="paint0_linear_1056_2526" x1="0" y1="9.88491" x2="16" y2="9.88491" gradientUnits="userSpaceOnUse">
<stop stop-color="#5669FF"/>
<stop offset="1" stop-color="#4D5BCA"/>
</linearGradient>
</defs>
</svg>
