<svg width="21" height="21" viewBox="0 0 21 21" fill="none" xmlns="http://www.w3.org/2000/svg">
<g clip-path="url(#clip0_1422_7820)">
<path d="M16.6063 2.16667H15.7793V1.33333C15.7793 1.11232 15.6921 0.900358 15.5371 0.744078C15.382 0.587797 15.1716 0.5 14.9523 0.5C14.733 0.5 14.5226 0.587797 14.3675 0.744078C14.2124 0.900358 14.1253 1.11232 14.1253 1.33333V2.16667H7.50943V1.33333C7.50943 1.11232 7.4223 0.900358 7.26721 0.744078C7.11212 0.587797 6.90177 0.5 6.68244 0.5C6.46311 0.5 6.25277 0.587797 6.09768 0.744078C5.94259 0.900358 5.85546 1.11232 5.85546 1.33333V2.16667H5.02848C3.93223 2.16799 2.88126 2.6074 2.1061 3.38852C1.33093 4.16963 0.894868 5.22867 0.893555 6.33333L0.893555 16.3333C0.894868 17.438 1.33093 18.497 2.1061 19.2782C2.88126 20.0593 3.93223 20.4987 5.02848 20.5H16.6063C17.7025 20.4987 18.7535 20.0593 19.5286 19.2782C20.3038 18.497 20.7399 17.438 20.7412 16.3333V6.33333C20.7399 5.22867 20.3038 4.16963 19.5286 3.38852C18.7535 2.6074 17.7025 2.16799 16.6063 2.16667ZM2.54752 6.33333C2.54752 5.67029 2.80891 5.03441 3.27418 4.56557C3.73945 4.09673 4.37049 3.83333 5.02848 3.83333H16.6063C17.2642 3.83333 17.8953 4.09673 18.3606 4.56557C18.8258 5.03441 19.0872 5.67029 19.0872 6.33333V7.16667H2.54752V6.33333ZM16.6063 18.8333H5.02848C4.37049 18.8333 3.73945 18.5699 3.27418 18.1011C2.80891 17.6323 2.54752 16.9964 2.54752 16.3333V8.83333H19.0872V16.3333C19.0872 16.9964 18.8258 17.6323 18.3606 18.1011C17.8953 18.5699 17.2642 18.8333 16.6063 18.8333Z" fill="#0019FF"/>
<path d="M10.8176 14.25C11.5027 14.25 12.0581 13.6904 12.0581 13C12.0581 12.3096 11.5027 11.75 10.8176 11.75C10.1325 11.75 9.57715 12.3096 9.57715 13C9.57715 13.6904 10.1325 14.25 10.8176 14.25Z" fill="#0019FF"/>
<path d="M6.68188 14.25C7.36698 14.25 7.92236 13.6904 7.92236 13C7.92236 12.3096 7.36698 11.75 6.68188 11.75C5.99679 11.75 5.44141 12.3096 5.44141 13C5.44141 13.6904 5.99679 14.25 6.68188 14.25Z" fill="#0019FF"/>
<path d="M14.9524 14.25C15.6375 14.25 16.1929 13.6904 16.1929 13C16.1929 12.3096 15.6375 11.75 14.9524 11.75C14.2673 11.75 13.7119 12.3096 13.7119 13C13.7119 13.6904 14.2673 14.25 14.9524 14.25Z" fill="#0019FF"/>
</g>
<defs>
<clipPath id="clip0_1422_7820">
<rect width="19.8476" height="20" fill="white" transform="translate(0.893555 0.5)"/>
</clipPath>
</defs>
</svg>
