<svg width="12" height="8" viewBox="0 0 12 8" fill="none" xmlns="http://www.w3.org/2000/svg">
<path d="M3.95124 6.59385L10.2013 0.273029C10.3089 0.164212 10.4367 0.108626 10.5846 0.106272C10.7326 0.103931 10.8626 0.159517 10.9749 0.273029C11.0871 0.386529 11.1432 0.516919 11.1432 0.664199C11.1432 0.811467 11.0871 0.941858 10.9749 1.05537L4.40899 7.6956C4.2782 7.82786 4.12562 7.894 3.95124 7.894C3.77686 7.894 3.62428 7.82786 3.49349 7.6956L0.472821 4.64074C0.365222 4.53192 0.312116 4.4027 0.313503 4.25308C0.314902 4.10346 0.371716 3.97189 0.483945 3.85839C0.596186 3.74488 0.725116 3.68813 0.870735 3.68813C1.01637 3.68813 1.1453 3.74488 1.25753 3.85839L3.95124 6.59385Z" fill="white"/>
</svg>
