
<svg width="7" height="12" viewBox="0 0 7 12" fill="none" xmlns="http://www.w3.org/2000/svg">
<path d="M4.2904 5.84422L0.217326 1.77112C0.0788589 1.63267 0.00802559 1.45864 0.00482559 1.24902C0.00160893 1.03942 0.0724423 0.862191 0.217326 0.717325C0.362192 0.572441 0.537825 0.5 0.744225 0.5C0.950625 0.5 1.12626 0.572441 1.27113 0.717325L5.76535 5.21155C5.85895 5.30513 5.92498 5.40385 5.96343 5.5077C6.00189 5.61153 6.02113 5.72371 6.02113 5.84422C6.02113 5.96474 6.00189 6.07692 5.96343 6.18075C5.92498 6.2846 5.85895 6.38332 5.76535 6.4769L1.27113 10.9711C1.13268 11.1096 0.958642 11.1804 0.749025 11.1836C0.539425 11.1868 0.362192 11.116 0.217326 10.9711C0.0724423 10.8263 0 10.6506 0 10.4442C0 10.2378 0.0724423 10.0622 0.217326 9.91733L4.2904 5.84422Z" fill="black"/>
</svg>