<svg width="20" height="20" viewBox="0 0 20 20" fill="none" xmlns="http://www.w3.org/2000/svg">
<path d="M12.4278 10.2609L6.30281 3.86957C6.09448 3.65217 5.99364 3.39478 6.00031 3.09739C6.00698 2.8 6.11475 2.5429 6.32364 2.32609C6.53198 2.1087 6.77864 2 7.06364 2C7.34864 2 7.59503 2.1087 7.80281 2.32609L14.1986 9.02174C14.3653 9.19565 14.4903 9.3913 14.5736 9.6087C14.657 9.82609 14.6986 10.0435 14.6986 10.2609C14.6986 10.4783 14.657 10.6957 14.5736 10.913C14.4903 11.1304 14.3653 11.3261 14.1986 11.5L7.78198 18.1957C7.57364 18.413 7.33059 18.5183 7.05281 18.5113C6.77503 18.5043 6.53198 18.3919 6.32364 18.1739C6.11531 17.9565 6.01114 17.6991 6.01114 17.4017C6.01114 17.1043 6.11531 16.8472 6.32364 16.6304L12.4278 10.2609Z" fill="white"/>
</svg>