<svg width="20" height="20" viewBox="0 0 20 20" fill="none" xmlns="http://www.w3.org/2000/svg">
<path d="M8.27083 9.90698L14.3958 16.032C14.6042 16.2403 14.705 16.4834 14.6983 16.7611C14.6917 17.0389 14.5839 17.282 14.375 17.4903C14.1667 17.6986 13.9236 17.8028 13.6458 17.8028C13.3681 17.8028 13.125 17.6986 12.9167 17.4903L6.5 11.0945C6.33333 10.9278 6.20833 10.7403 6.125 10.532C6.04167 10.3236 6 10.1153 6 9.90698C6 9.69864 6.04167 9.49031 6.125 9.28198C6.20833 9.07364 6.33333 8.88614 6.5 8.71948L12.9167 2.30281C13.125 2.09448 13.3717 1.99364 13.6567 2.00031C13.9417 2.00698 14.1881 2.11475 14.3958 2.32364C14.6042 2.53198 14.7083 2.77503 14.7083 3.05281C14.7083 3.33059 14.6042 3.57364 14.3958 3.78198L8.27083 9.90698Z" fill="white"/>
</svg>