
<svg width="19" height="19" viewBox="0 0 19 19" fill="none" xmlns="http://www.w3.org/2000/svg">
<path d="M9.32708 0.921875C7.59061 0.921875 5.89256 1.4428 4.44806 2.41869C3.00466 3.3947 1.87848 4.78183 1.21441 6.40478C0.549234 8.02772 0.375804 9.81365 0.714976 11.5365C1.05305 13.2599 1.88946 14.842 3.11772 16.0844C4.34598 17.3267 5.91012 18.1727 7.61367 18.5147C9.31721 18.8577 11.0833 18.6823 12.687 18.0095C14.2917 17.3378 15.6638 16.1987 16.6286 14.7388C17.5934 13.2777 18.1082 11.5605 18.1082 9.80377C18.106 7.44895 17.1796 5.19129 15.5332 3.52616C13.8878 1.86103 11.6552 0.924429 9.32708 0.921875ZM9.32708 17.2057C7.87929 17.2057 6.46553 16.7716 5.26141 15.9578C4.05839 15.1451 3.11992 13.9882 2.5667 12.636C2.01239 11.2838 1.8675 9.79555 2.14959 8.35979C2.43279 6.92404 3.12979 5.60519 4.1528 4.57011C5.1758 3.53493 6.4798 2.83004 7.89905 2.54438C9.3194 2.25882 10.7902 2.40537 12.1272 2.9656C13.4641 3.52582 14.6078 4.47452 15.4113 5.69168C16.2159 6.90883 16.6451 8.33992 16.6451 9.80377C16.6429 11.7661 15.8712 13.6474 14.4992 15.0352C13.1271 16.423 11.2677 17.2035 9.32708 17.2057Z" fill="white"/>
<path d="M9.32671 5.36328C9.13242 5.36328 8.94582 5.44122 8.80862 5.58011C8.67141 5.71889 8.59458 5.90719 8.59458 6.10348V9.30462L6.12817 10.8678C5.96243 10.9721 5.84608 11.1383 5.80218 11.33C5.75827 11.5216 5.7912 11.7232 5.89438 11.89C5.99756 12.0569 6.1622 12.1757 6.351 12.2201C6.54089 12.2645 6.73956 12.2301 6.9053 12.1257L9.71527 10.3497C9.82064 10.2824 9.90846 10.1887 9.96883 10.0775C10.0281 9.96632 10.0599 9.84141 10.0577 9.71463V6.10348C10.0577 5.90719 9.9809 5.71889 9.8437 5.58011C9.70649 5.44122 9.51989 5.36328 9.32671 5.36328Z" fill="white"/>
</svg>
