
<svg width="10" height="10" viewBox="0 0 10 10" fill="none" xmlns="http://www.w3.org/2000/svg">
<path d="M5.06425 5.77136L1.3938 9.48337C1.29363 9.58468 1.16771 9.63651 1.01605 9.63886C0.864402 9.64121 0.736172 9.58938 0.631359 9.48337C0.526534 9.37737 0.474121 9.24886 0.474121 9.09783C0.474121 8.94681 0.526534 8.81829 0.631359 8.71229L4.3018 5.00027L0.631359 1.28825C0.531176 1.18694 0.479927 1.0596 0.477612 0.906221C0.475285 0.752856 0.526534 0.623172 0.631359 0.517172C0.736172 0.41116 0.863245 0.358154 1.01258 0.358154C1.16191 0.358154 1.28898 0.41116 1.3938 0.517172L5.06425 4.22918L8.73471 0.517172C8.83488 0.415855 8.9608 0.364026 9.11246 0.361685C9.26411 0.359331 9.39234 0.41116 9.49715 0.517172C9.60198 0.623172 9.65439 0.751684 9.65439 0.902709C9.65439 1.05373 9.60198 1.18225 9.49715 1.28825L5.82671 5.00027L9.49715 8.71229C9.59733 8.8136 9.64858 8.94094 9.6509 9.09432C9.65322 9.24769 9.60198 9.37737 9.49715 9.48337C9.39234 9.58938 9.26526 9.64239 9.11593 9.64239C8.9666 9.64239 8.83953 9.58938 8.73471 9.48337L5.06425 5.77136Z" fill="black"/>
</svg>