<svg width="33" height="33" viewBox="0 0 33 33" fill="none" xmlns="http://www.w3.org/2000/svg">
<path d="M1.27344 16.1135C1.27344 7.4904 8.26384 0.5 16.8869 0.5C25.51 0.5 32.5004 7.4904 32.5004 16.1135C32.5004 24.7366 25.51 31.727 16.8869 31.727C8.26384 31.727 1.27344 24.7366 1.27344 16.1135Z" fill="#F7FAF9"/>
<path d="M1.27344 16.1135C1.27344 7.4904 8.26384 0.5 16.8869 0.5C25.51 0.5 32.5004 7.4904 32.5004 16.1135C32.5004 24.7366 25.51 31.727 16.8869 31.727C8.26384 31.727 1.27344 24.7366 1.27344 16.1135Z" stroke="url(#paint0_linear_147_8623)"/>
<path d="M16.8867 16.6342L13.4542 20.4957C13.393 20.5646 13.3179 20.6014 13.2289 20.6061C13.14 20.6109 13.0608 20.5741 12.9912 20.4957C12.9216 20.4174 12.8867 20.3306 12.8867 20.2353C12.8867 20.14 12.9216 20.0532 12.9912 19.9749L16.4236 16.1133L12.9912 12.2516C12.93 12.1828 12.8972 12.0984 12.8931 11.9982C12.8888 11.8983 12.9216 11.8091 12.9912 11.7309C13.0608 11.6525 13.138 11.6133 13.2227 11.6133C13.3074 11.6133 13.3846 11.6525 13.4542 11.7309L16.8867 15.5923L20.3193 11.7309C20.3805 11.6619 20.4555 11.6251 20.5445 11.6205C20.6334 11.6157 20.7126 11.6525 20.7822 11.7309C20.8519 11.8091 20.8867 11.8959 20.8867 11.9913C20.8867 12.0866 20.8519 12.1734 20.7822 12.2516L17.3498 16.1133L20.7822 19.9749C20.8435 20.0437 20.8762 20.1282 20.8803 20.2283C20.8846 20.3283 20.8519 20.4174 20.7822 20.4957C20.7126 20.5741 20.6355 20.6133 20.5507 20.6133C20.466 20.6133 20.3889 20.5741 20.3193 20.4957L16.8867 16.6342Z" fill="black"/>
<defs>
<linearGradient id="paint0_linear_147_8623" x1="0.773438" y1="16.1135" x2="33.0004" y2="16.1135" gradientUnits="userSpaceOnUse">
<stop stop-color="#BFD4CB"/>
<stop offset="1" stop-color="#A4BCB2"/>
</linearGradient>
</defs>
</svg>
