<svg width="256" height="256" viewBox="0 0 256 256" fill="none" xmlns="http://www.w3.org/2000/svg">
<g clip-path="url(#clip0_966_22)">
<path d="M127.952 255.903C198.617 255.903 255.903 198.617 255.903 127.952C255.903 57.2859 198.617 0 127.952 0C57.2859 0 0 57.2859 0 127.952C0 198.617 57.2859 255.903 127.952 255.903Z" fill="#D6D6FF"/>
<path fill-rule="evenodd" clip-rule="evenodd" d="M240.257 105.107C240.257 175.754 182.953 233.058 112.306 233.058C73.4306 233.058 38.5871 215.685 15.0701 188.328C36.6673 228.643 79.0939 255.999 127.952 255.999C198.695 255.999 255.999 198.695 255.999 127.952C255.999 96.1798 244.385 67.0955 225.187 44.7303C234.786 62.6801 240.257 83.2214 240.257 105.107Z" fill="#C5C5EB"/>
<path fill-rule="evenodd" clip-rule="evenodd" d="M127.952 209.925C82.8374 209.925 46.0741 173.162 46.0741 127.952C46.0741 82.8374 82.8374 46.0741 127.952 46.0741C173.162 46.0741 209.925 82.8374 209.925 127.952C209.925 173.162 173.162 209.925 127.952 209.925Z" fill="#97D4FF"/>
<path fill-rule="evenodd" clip-rule="evenodd" d="M127.952 199.654C88.5007 199.654 56.3448 167.499 56.3448 127.952C56.3448 88.5006 88.5007 56.3447 127.952 56.3447C167.499 56.3447 199.655 88.5006 199.655 127.952C199.655 167.499 167.499 199.654 127.952 199.654Z" fill="#66A5C4"/>
<rect x="93" y="147.059" width="75.975" height="22.1332" rx="2" transform="rotate(-44.2972 93 147.059)" fill="white"/>
<rect x="109.174" y="94" width="75.975" height="22.1332" rx="2" transform="rotate(46.9484 109.174 94)" fill="white"/>
</g>
<defs>
<clipPath id="clip0_966_22">
<rect width="255.999" height="255.999" fill="white"/>
</clipPath>
</defs>
</svg>
