<svg width="63" height="63" viewBox="0 0 63 63" fill="none" xmlns="http://www.w3.org/2000/svg">
<rect x="0.37207" y="0.22699" width="62.4834" height="62.4834" rx="4" fill="#FF3B30" fill-opacity="0.2"/>
<path d="M23.3541 46.5856C22.5258 46.5856 21.8202 46.2839 21.2374 45.6806C20.655 45.077 20.3638 44.3462 20.3638 43.4882V19.7438H18.5127V17.8265H25.9169V16.3517H37.0232V17.8265H44.4275V19.7438H42.5764V43.4882C42.5764 44.3708 42.291 45.1077 41.7203 45.6988C41.1496 46.29 40.4381 46.5856 39.586 46.5856H23.3541ZM40.7254 19.7438H22.2148V43.4882C22.2148 43.8324 22.3216 44.1152 22.535 44.3366C22.7488 44.5578 23.0219 44.6683 23.3541 44.6683H39.586C39.8711 44.6683 40.1322 44.5455 40.3695 44.2997C40.6067 44.054 40.7254 43.7835 40.7254 43.4882V19.7438ZM27.4121 40.8338H29.2632V23.5784H27.4121V40.8338ZM33.677 40.8338H35.5281V23.5784H33.677V40.8338Z" fill="#FF3B30"/>
</svg>
