<svg width="27" height="31" viewBox="0 0 27 31" fill="none" xmlns="http://www.w3.org/2000/svg">
<path d="M5.35413 30.5856C4.52578 30.5856 3.82022 30.2839 3.23745 29.6806C2.65498 29.077 2.36375 28.3462 2.36375 27.4882V3.74381H0.512695V1.82655H7.91692V0.351685H19.0232V1.82655H26.4275V3.74381H24.5764V27.4882C24.5764 28.3708 24.291 29.1077 23.7203 29.6988C23.1496 30.29 22.4381 30.5856 21.586 30.5856H5.35413ZM22.7254 3.74381H4.21481V27.4882C4.21481 27.8324 4.32155 28.1152 4.53504 28.3366C4.74884 28.5578 5.02187 28.6683 5.35413 28.6683H21.586C21.8711 28.6683 22.1322 28.5455 22.3695 28.2997C22.6067 28.054 22.7254 27.7835 22.7254 27.4882V3.74381ZM9.41211 24.8338H11.2632V7.57835H9.41211V24.8338ZM15.677 24.8338H17.5281V7.57835H15.677V24.8338Z" fill="#FF3B30"/>
</svg>
