
<svg width="19" height="19" viewBox="0 0 19 19" fill="none" xmlns="http://www.w3.org/2000/svg">
<path d="M9.47511 14.0352L4.96189 9.52196L5.8646 8.60458L8.83738 11.5774V0.544617H10.1128V11.5774L13.0856 8.60458L13.9883 9.52196L9.47511 14.0352ZM2.60738 18.4011C2.02025 18.4011 1.53004 18.2045 1.13678 17.8112C0.743509 17.4179 0.546875 16.9277 0.546875 16.3406V13.2501H1.82234V16.3406C1.82234 16.537 1.90407 16.717 2.06755 16.8804C2.23102 17.0439 2.41096 17.1256 2.60738 17.1256H16.3428C16.5393 17.1256 16.7192 17.0439 16.8827 16.8804C17.0462 16.717 17.1279 16.537 17.1279 16.3406V13.2501H18.4034V16.3406C18.4034 16.9277 18.2067 17.4179 17.8135 17.8112C17.4202 18.2045 16.93 18.4011 16.3428 18.4011H2.60738Z" fill="#E8EAED"/>
</svg>
