<svg width="38" height="38" viewBox="0 0 38 38" fill="none" xmlns="http://www.w3.org/2000/svg">
<rect x="38" width="38" height="38" rx="6" transform="rotate(90 38 0)" fill="#5669FF"/>
<path d="M18.4712 23.0355L13.958 18.5223L14.8607 17.6049L17.8335 20.5777V9.54492H19.1089V20.5777L22.0817 17.6049L22.9844 18.5223L18.4712 23.0355ZM11.6035 27.4014C11.0163 27.4014 10.5261 27.2048 10.1329 26.8115C9.7396 26.4182 9.54297 25.928 9.54297 25.3409V22.2504H10.8184V25.3409C10.8184 25.5373 10.9002 25.7173 11.0636 25.8807C11.2271 26.0442 11.4071 26.1259 11.6035 26.1259H25.3389C25.5354 26.1259 25.7153 26.0442 25.8788 25.8807C26.0422 25.7173 26.124 25.5373 26.124 25.3409V22.2504H27.3994V25.3409C27.3994 25.928 27.2028 26.4182 26.8095 26.8115C26.4163 27.2048 25.9261 27.4014 25.3389 27.4014H11.6035Z" fill="#E8EAED"/>
</svg>
