
<svg width="100" height="31" viewBox="0 0 100 31" fill="none" xmlns="http://www.w3.org/2000/svg">
<rect y="2.07495" width="26.914" height="26.85" rx="6" fill="#A162F7"/>
<path d="M40.5219 24V7.2H43.7619V21.48H51.1299V24H40.5219ZM58.9359 24.288C57.7999 24.288 56.7679 24.024 55.8399 23.496C54.9279 22.968 54.1999 22.232 53.6559 21.288C53.1119 20.344 52.8399 19.264 52.8399 18.048C52.8399 16.816 53.1119 15.736 53.6559 14.808C54.1999 13.864 54.9359 13.128 55.8639 12.6C56.7919 12.072 57.8239 11.808 58.9599 11.808C60.1119 11.808 61.1519 12.072 62.0799 12.6C63.0079 13.128 63.7359 13.864 64.2639 14.808C64.8079 15.736 65.0799 16.816 65.0799 18.048C65.0799 19.28 64.8079 20.368 64.2639 21.312C63.7199 22.24 62.9839 22.968 62.0559 23.496C61.1439 24.024 60.1039 24.288 58.9359 24.288ZM58.9599 21.48C59.4719 21.48 59.9359 21.352 60.3519 21.096C60.7839 20.84 61.1279 20.456 61.3839 19.944C61.6559 19.432 61.7919 18.8 61.7919 18.048C61.7919 17.28 61.6639 16.648 61.4079 16.152C61.1519 15.64 60.8079 15.256 60.3759 15C59.9599 14.744 59.4959 14.616 58.9839 14.616C58.4719 14.616 57.9999 14.744 57.5679 15C57.1359 15.256 56.7919 15.64 56.5359 16.152C56.2799 16.648 56.1519 17.28 56.1519 18.048C56.1519 18.8 56.2799 19.432 56.5359 19.944C56.7919 20.456 57.1279 20.84 57.5439 21.096C57.9759 21.352 58.4479 21.48 58.9599 21.48ZM72.2361 29.568C71.1001 29.568 70.1001 29.424 69.2361 29.136C68.3881 28.864 67.7321 28.44 67.2681 27.864C66.8041 27.304 66.5721 26.608 66.5721 25.776C66.5721 25.216 66.7161 24.688 67.0041 24.192C67.2921 23.712 67.7081 23.272 68.2521 22.872C68.8121 22.456 69.5001 22.104 70.3161 21.816L71.5161 23.424C70.7961 23.664 70.2761 23.96 69.9561 24.312C69.6361 24.68 69.4761 25.056 69.4761 25.44C69.4761 25.824 69.5961 26.136 69.8361 26.376C70.0921 26.632 70.4281 26.816 70.8441 26.928C71.2601 27.056 71.7241 27.12 72.2361 27.12C72.7321 27.12 73.1641 27.056 73.5321 26.928C73.9001 26.8 74.1881 26.608 74.3961 26.352C74.6201 26.112 74.7321 25.832 74.7321 25.512C74.7321 25.08 74.5801 24.728 74.2761 24.456C73.9721 24.2 73.3801 24.04 72.5001 23.976C71.6841 23.912 70.9641 23.816 70.3401 23.688C69.7161 23.56 69.1641 23.416 68.6841 23.256C68.2201 23.096 67.8201 22.912 67.4841 22.704C67.1481 22.496 66.8841 22.288 66.6921 22.08V21.528L69.2601 18.744L71.5161 19.488L68.5401 22.488L69.4761 20.904C69.6361 21.016 69.8041 21.12 69.9801 21.216C70.1561 21.296 70.3641 21.368 70.6041 21.432C70.8601 21.496 71.1881 21.56 71.5881 21.624C71.9881 21.672 72.5001 21.728 73.1241 21.792C74.1801 21.872 75.0441 22.064 75.7161 22.368C76.3881 22.672 76.8841 23.08 77.2041 23.592C77.5241 24.104 77.6841 24.72 77.6841 25.44C77.6841 26.144 77.4921 26.808 77.1081 27.432C76.7241 28.072 76.1241 28.584 75.3081 28.968C74.5081 29.368 73.4841 29.568 72.2361 29.568ZM72.2601 20.472C71.2521 20.472 70.3801 20.28 69.6441 19.896C68.9241 19.512 68.3641 18.992 67.9641 18.336C67.5801 17.68 67.3881 16.952 67.3881 16.152C67.3881 15.352 67.5801 14.624 67.9641 13.968C68.3641 13.312 68.9241 12.792 69.6441 12.408C70.3801 12.008 71.2521 11.808 72.2601 11.808C73.2681 11.808 74.1321 12.008 74.8521 12.408C75.5881 12.792 76.1481 13.312 76.5321 13.968C76.9161 14.624 77.1081 15.352 77.1081 16.152C77.1081 16.952 76.9161 17.68 76.5321 18.336C76.1481 18.992 75.5881 19.512 74.8521 19.896C74.1321 20.28 73.2681 20.472 72.2601 20.472ZM72.2601 18C72.8681 18 73.3641 17.848 73.7481 17.544C74.1321 17.224 74.3241 16.76 74.3241 16.152C74.3241 15.56 74.1321 15.112 73.7481 14.808C73.3641 14.488 72.8681 14.328 72.2601 14.328C71.6521 14.328 71.1481 14.488 70.7481 14.808C70.3641 15.112 70.1721 15.56 70.1721 16.152C70.1721 16.76 70.3641 17.224 70.7481 17.544C71.1481 17.848 71.6521 18 72.2601 18ZM74.2041 14.376L73.6761 12.096H78.6681V14.016L74.2041 14.376ZM86.5922 24.288C85.4562 24.288 84.4242 24.024 83.4962 23.496C82.5842 22.968 81.8562 22.232 81.3122 21.288C80.7682 20.344 80.4962 19.264 80.4962 18.048C80.4962 16.816 80.7682 15.736 81.3122 14.808C81.8562 13.864 82.5922 13.128 83.5202 12.6C84.4482 12.072 85.4802 11.808 86.6162 11.808C87.7682 11.808 88.8082 12.072 89.7362 12.6C90.6642 13.128 91.3922 13.864 91.9202 14.808C92.4642 15.736 92.7362 16.816 92.7362 18.048C92.7362 19.28 92.4642 20.368 91.9202 21.312C91.3762 22.24 90.6402 22.968 89.7122 23.496C88.8002 24.024 87.7602 24.288 86.5922 24.288ZM86.6162 21.48C87.1282 21.48 87.5922 21.352 88.0082 21.096C88.4402 20.84 88.7842 20.456 89.0402 19.944C89.3122 19.432 89.4482 18.8 89.4482 18.048C89.4482 17.28 89.3202 16.648 89.0642 16.152C88.8082 15.64 88.4642 15.256 88.0322 15C87.6162 14.744 87.1522 14.616 86.6402 14.616C86.1282 14.616 85.6562 14.744 85.2242 15C84.7922 15.256 84.4482 15.64 84.1922 16.152C83.9362 16.648 83.8082 17.28 83.8082 18.048C83.8082 18.8 83.9362 19.432 84.1922 19.944C84.4482 20.456 84.7842 20.84 85.2002 21.096C85.6322 21.352 86.1042 21.48 86.6162 21.48ZM96.8978 24.12C96.2898 24.12 95.8018 23.944 95.4338 23.592C95.0658 23.224 94.8818 22.776 94.8818 22.248C94.8818 21.72 95.0658 21.28 95.4338 20.928C95.8018 20.56 96.2898 20.376 96.8978 20.376C97.4898 20.376 97.9698 20.56 98.3378 20.928C98.7058 21.28 98.8898 21.72 98.8898 22.248C98.8898 22.776 98.7058 23.224 98.3378 23.592C97.9698 23.944 97.4898 24.12 96.8978 24.12Z" fill="#1F2128"/>
</svg>
