
<svg width="15" height="15" viewBox="0 0 15 15" fill="none" xmlns="http://www.w3.org/2000/svg">
<path d="M1.36078 15C0.973031 15 0.649296 14.8705 0.389578 14.6114C0.129859 14.3523 0 14.0294 0 13.6426V2.91354C0 2.52675 0.129859 2.20381 0.389578 1.94474C0.649296 1.68567 0.973031 1.55613 1.36078 1.55613H8.42498L7.58265 2.39637H1.36078C1.23107 2.39637 1.11223 2.45022 1.00427 2.55791C0.896309 2.6656 0.84233 2.78414 0.84233 2.91354V13.6426C0.84233 13.772 0.896309 13.8905 1.00427 13.9982C1.11223 14.1059 1.23107 14.1598 1.36078 14.1598H12.1165C12.2462 14.1598 12.3651 14.1059 12.473 13.9982C12.581 13.8905 12.6349 13.772 12.6349 13.6426V7.35065L13.4773 6.5104V13.6426C13.4773 14.0294 13.3474 14.3523 13.0877 14.6114C12.828 14.8705 12.5042 15 12.1165 15H1.36078ZM5.05398 9.95855V7.7609L12.588 0.245771C12.6808 0.153064 12.7785 0.0889264 12.8811 0.0533562C12.9837 0.0177859 13.0918 0 13.2052 0C13.3111 0 13.4145 0.0177859 13.5154 0.0533562C13.6163 0.0889264 13.7079 0.147672 13.79 0.229596L14.7262 1.13601C14.8158 1.22871 14.8838 1.3308 14.9303 1.44228C14.9768 1.55375 15 1.66606 15 1.77921C15 1.89223 14.9829 1.99908 14.9488 2.09977C14.9149 2.20059 14.8515 2.29729 14.7587 2.38986L7.17602 9.95855H5.05398ZM5.89631 9.11831H6.81634L12.4309 3.51767L11.9708 3.0589L11.4574 2.56757L5.89631 8.11485V9.11831Z" fill="#66A5C4"/>
</svg>
