
<svg width="14" height="14" viewBox="0 0 14 14" fill="none" xmlns="http://www.w3.org/2000/svg">
<path d="M1.92111 7.49991L7.35936 12.9384C7.45686 13.0357 7.50786 13.1505 7.51236 13.2827C7.51686 13.4147 7.46395 13.5358 7.35361 13.6462C7.24345 13.7525 7.12553 13.8067 6.99986 13.8087C6.8742 13.8105 6.75628 13.7563 6.64611 13.6462L0.565363 7.56541C0.47803 7.47808 0.41678 7.38891 0.381614 7.29791C0.34628 7.20691 0.328613 7.10758 0.328613 6.99991C0.328613 6.89224 0.34628 6.79291 0.381614 6.70191C0.41678 6.61091 0.47803 6.52174 0.565363 6.43441L6.64611 0.353659C6.73961 0.260159 6.85336 0.210159 6.98736 0.203659C7.12136 0.197326 7.24345 0.247326 7.35361 0.353659C7.46395 0.463992 7.51911 0.582908 7.51911 0.710408C7.51911 0.838075 7.46395 0.956992 7.35361 1.06716L1.92111 6.49991H13.4999C13.6422 6.49991 13.7611 6.54766 13.8566 6.64316C13.9521 6.73866 13.9999 6.85758 13.9999 6.99991C13.9999 7.14224 13.9521 7.26116 13.8566 7.35666C13.7611 7.45216 13.6422 7.49991 13.4999 7.49991H1.92111Z" fill="black"/>
</svg>
