<svg width="17" height="16" viewBox="0 0 17 16" fill="none" xmlns="http://www.w3.org/2000/svg">
<path d="M8.64394 11.9111C8.819 11.9111 8.96564 11.8519 9.08387 11.7336C9.20209 11.6152 9.2612 11.4686 9.2612 11.2936V7.79413C9.2612 7.61917 9.202 7.47251 9.0836 7.35415C8.96518 7.23578 8.81845 7.1766 8.64341 7.1766C8.46835 7.1766 8.32171 7.23578 8.20349 7.35415C8.08526 7.47251 8.02615 7.61917 8.02615 7.79413V11.2936C8.02615 11.4686 8.08535 11.6152 8.20376 11.7336C8.32217 11.8519 8.4689 11.9111 8.64394 11.9111ZM8.64368 5.76733C8.83211 5.76733 8.99006 5.7036 9.11752 5.57614C9.24498 5.44868 9.30871 5.29073 9.30871 5.1023C9.30871 4.91388 9.24498 4.75593 9.11752 4.62845C8.99006 4.50099 8.83211 4.43726 8.64368 4.43726C8.45524 4.43726 8.29729 4.50099 8.16983 4.62845C8.04237 4.75593 7.97864 4.91388 7.97864 5.1023C7.97864 5.29073 8.04237 5.44868 8.16983 5.57614C8.29729 5.7036 8.45524 5.76733 8.64368 5.76733ZM8.64506 15.8223C7.56316 15.8223 6.54624 15.617 5.59428 15.2064C4.64231 14.7958 3.81423 14.2385 3.11005 13.5347C2.40585 12.8308 1.84836 12.0031 1.43758 11.0515C1.0268 10.1 0.821411 9.08327 0.821411 8.00138C0.821411 6.91949 1.02671 5.90256 1.43731 4.9506C1.84791 3.99863 2.40515 3.17056 3.10902 2.46637C3.8129 1.76217 4.64061 1.20468 5.59216 0.793905C6.54369 0.383125 7.56041 0.177734 8.6423 0.177734C9.72419 0.177734 10.7411 0.383036 11.6931 0.793637C12.645 1.20424 13.4731 1.76147 14.1773 2.46534C14.8815 3.16922 15.439 3.99694 15.8498 4.94849C16.2606 5.90002 16.4659 6.91673 16.4659 7.99862C16.4659 9.08051 16.2606 10.0974 15.85 11.0494C15.4394 12.0014 14.8822 12.8294 14.1783 13.5336C13.4745 14.2378 12.6467 14.7953 11.6952 15.2061C10.7437 15.6169 9.72695 15.8223 8.64506 15.8223Z" fill="#F9C40B"/>
</svg>