
<svg width="13" height="14" viewBox="0 0 13 14" fill="none" xmlns="http://www.w3.org/2000/svg">
<path d="M6.63666 9.27666C6.8923 9.2771 7.14443 9.21748 7.37318 9.10224L8.47082 8.54723C9.03029 8.26623 9.38318 7.68791 9.38077 7.05618V5.40915C9.38274 4.77787 9.02985 4.20033 8.47082 3.91977L7.37318 3.36465C6.90942 3.1315 6.36444 3.1315 5.90069 3.36465L4.80305 3.91977C4.2438 4.20021 3.8908 4.77776 3.89255 5.40915V7.05618C3.89058 7.68757 4.24336 8.26523 4.8025 8.54612L5.90014 9.10124C6.12889 9.21671 6.38102 9.27677 6.63666 9.27666ZM4.99019 7.05618V5.40915C4.99107 5.35253 5.00051 5.29635 5.01818 5.24261L6.21462 5.84769C6.48035 5.98192 6.79307 5.98192 7.0587 5.84769L8.25524 5.24261C8.27292 5.29635 8.28236 5.35253 8.28323 5.40915V7.05618C8.28411 7.26679 8.16634 7.45953 7.97974 7.55291L6.88209 8.10802C6.72733 8.18552 6.54567 8.18552 6.3909 8.10802L5.29325 7.55291C5.10676 7.45931 4.98921 7.26668 4.99019 7.05618ZM10.4784 12.6074H8.99165L10.9054 10.8187C13.263 8.4341 13.2631 4.56781 10.9055 2.18314C8.54799 -0.201652 4.72555 -0.201651 2.36793 2.18303C0.0101883 4.56759 0.0101891 8.43388 2.36782 10.8186C2.37298 10.8238 4.28167 12.6074 4.28167 12.6074H2.79491C2.49185 12.6074 2.24609 12.8558 2.24609 13.1624C2.24609 13.469 2.49185 13.7175 2.79491 13.7175H10.4785C10.7816 13.7175 11.0272 13.469 11.0272 13.1624C11.0272 12.8558 10.7816 12.6074 10.4784 12.6074ZM3.14396 2.96829C5.06868 1.01272 8.1963 1.00562 10.1297 2.95242C12.0631 4.89922 12.07 8.06272 10.1453 10.0182L7.95822 12.0616C7.21183 12.7732 6.04514 12.7691 5.30357 12.0521L3.14396 10.0337C1.21804 8.08138 1.21804 4.92064 3.14396 2.96829Z" fill="white"/>
</svg>
