
<svg width="76" height="73" viewBox="0 0 76 73" fill="none" xmlns="http://www.w3.org/2000/svg">
<path d="M64.2023 0.80127H11.7966C5.48649 0.80127 0.371094 6.22172 0.371094 12.9082V60.0918C0.371094 66.7783 5.48649 72.1987 11.7966 72.1987H64.2023C70.5125 72.1987 75.6279 66.7783 75.6279 60.0918V12.9082C75.6279 6.22172 70.5125 0.80127 64.2023 0.80127Z" fill="#66A5C4"/>
<path d="M48.0072 15.2517C47.4564 16.8123 45.8958 17.7303 44.4728 17.2254C43.0499 16.7205 42.3614 15.0681 42.9122 13.4616C43.463 11.855 45.0237 10.9829 46.4466 11.4878C47.8695 11.9927 48.558 13.6911 48.0072 15.2517Z" fill="white"/>
<path d="M59.0708 11.9472C58.6576 11.5341 57.7855 11.8095 57.2806 11.9472C56.5462 12.1308 55.8577 12.4062 55.2151 12.7275C52.92 13.921 50.9922 15.6652 48.8349 17.134C47.4119 18.0979 45.3464 19.2455 43.694 18.2356C43.0514 17.8684 42.5924 17.2258 42.2711 16.5832C41.5825 15.1603 41.2612 13.462 40.8481 11.9472C40.7563 11.5341 40.3891 10.2948 39.7924 11.0292C39.7006 11.1669 39.6088 11.3505 39.5629 11.4882C39.0121 13.3702 39.1039 15.4816 39.4252 17.4094C39.6547 18.7864 40.0219 20.1176 40.435 21.4028C40.8481 22.688 41.3071 23.8814 41.6284 24.9831C41.9497 26.1306 42.1793 27.1863 42.1793 28.242C42.1793 30.2617 41.4448 32.1436 40.6186 33.9796C40.2055 34.8976 39.7465 35.7698 39.3334 36.6878C39.1957 37.0091 38.599 38.432 39.517 38.0648C39.7006 37.973 39.7924 37.8812 39.9301 37.7435C40.435 37.1927 40.9858 36.6878 41.4907 36.137C41.9038 35.7239 42.317 35.0812 42.8219 34.8058C43.6481 34.3468 44.0612 35.4943 44.1989 36.0911C44.5202 37.1468 44.6579 38.2484 44.9792 39.3041C45.4841 41.0944 46.5398 49.3106 48.0546 48.8057C48.33 48.7139 48.5595 48.4844 48.6972 48.2549C50.0283 46.4189 50.0742 43.9861 50.166 41.8288C50.3037 38.3861 49.9365 34.9435 50.0742 31.501C50.166 29.3436 50.5791 27.1863 51.3135 25.1208C52.0479 23.0093 53.1954 21.0356 54.4807 19.1996C55.7402 17.3553 57.2641 15.6874 58.5773 13.8503C58.631 13.7752 58.6778 13.6962 58.7329 13.6222C58.8091 13.5193 58.8849 13.4133 58.9542 13.3056C59.0239 13.1978 59.0836 13.0814 59.1286 12.9564C59.2034 12.7493 59.2745 12.5289 59.2511 12.3098C59.2369 12.1737 59.1768 12.0529 59.0708 11.9472Z" fill="white"/>
<path d="M62.1934 30.858C61.5508 31.7301 60.3573 31.9596 59.577 31.3629C58.7967 30.7662 58.7049 29.6186 59.3475 28.7465C59.9901 27.8744 61.1836 27.6449 61.9639 28.2416C62.7442 28.8383 62.836 29.9858 62.1934 30.858Z" fill="white"/>
<path d="M69.7483 31.2105C69.7451 31.101 69.6965 30.9866 69.6106 30.9181C69.3628 30.7194 68.89 30.7135 68.6164 30.6745C68.1574 30.6286 67.6525 30.6745 67.1935 30.7663C65.5411 31.0417 63.9804 31.7302 62.3739 32.2351C61.3182 32.5564 59.8035 32.8318 58.9773 31.9138C58.6559 31.5466 58.5182 31.0876 58.4264 30.5827C58.2887 29.5729 58.4264 28.4254 58.4723 27.4156C58.4723 27.1401 58.5182 26.268 57.9674 26.6352C57.9491 26.6445 57.9307 26.6556 57.9124 26.6683C57.7673 26.7691 57.6856 26.9364 57.592 27.0859C56.9544 28.1028 56.6239 29.3366 56.4527 30.4909C56.315 31.4089 56.2691 32.281 56.2691 33.1532C56.2691 34.0253 56.315 34.8515 56.315 35.6318C56.315 36.4121 56.2232 37.1006 55.9937 37.7432C55.5806 38.9826 54.7544 40.0383 53.8823 41.0023C53.4233 41.4613 52.9642 41.9662 52.5511 42.4253C52.4235 42.5529 51.8231 43.2712 52.2468 43.3033C52.3267 43.3093 52.3951 43.3029 52.4726 43.2818C52.6241 43.24 52.7586 43.1207 52.8972 43.0458C53.2525 42.854 53.6293 42.6626 53.9741 42.4712C54.2954 42.2875 54.7085 41.9662 55.0757 41.9203C55.6724 41.7826 55.6724 42.6089 55.6724 42.9761C55.6265 43.7105 55.5347 44.399 55.4888 45.1334C55.4429 46.3727 54.479 51.6513 55.4888 51.6513C55.5824 51.6513 55.6761 51.6274 55.7637 51.5857C55.9345 51.5044 56.0731 51.3686 56.2163 51.2451C57.2523 50.3551 57.7246 48.9519 58.1969 47.7497C58.9772 45.6383 59.4363 43.4351 60.2166 41.3236C60.7215 39.9924 61.41 38.753 62.2362 37.6055C63.1083 36.458 64.2099 35.4482 65.4034 34.5761C66.5968 33.6581 67.882 32.9236 69.0754 32.0056C69.1213 31.9597 69.2131 31.9138 69.259 31.8679C69.3339 31.7931 69.4224 31.7319 69.5023 31.6621C69.6368 31.5444 69.7534 31.3893 69.7483 31.2105Z" fill="white"/>
<path d="M31.6367 17.2463C33.0519 16.7612 33.7587 15.0851 33.2162 13.5025C32.6736 11.9199 31.0868 11.0301 29.672 11.5152C28.2573 12.0002 27.5502 13.6764 28.0928 15.259C28.6354 16.8416 30.2222 17.7314 31.6367 17.2463Z" fill="white"/>
<path d="M16.9081 12.1786C16.9592 12.0125 17.0821 11.8713 17.2423 11.8041C17.6947 11.6143 18.3877 11.8304 18.8162 11.9472C19.5506 12.1308 20.2391 12.4062 20.8817 12.7275C23.1767 13.921 25.1046 15.6652 27.2619 17.134C28.6848 18.0979 30.7504 19.2455 32.4026 18.2356C33.0452 17.8684 33.5042 17.2258 33.8255 16.5832C34.514 15.1603 34.8353 13.462 35.2484 11.9472C35.3402 11.5341 35.7074 10.2948 36.3041 11.0292C36.3959 11.1669 36.4877 11.3505 36.5336 11.4882C37.0844 13.3702 36.9926 15.4816 36.6713 17.4094C36.4418 18.7864 36.0746 20.1176 35.6615 21.4028C35.2484 22.688 34.7894 23.8814 34.4681 24.9831C34.1468 26.1306 33.9173 27.1863 33.9173 28.242C33.9173 30.2617 34.6517 32.1436 35.4779 33.9796C35.891 34.8976 36.35 35.7698 36.7631 36.6878C36.9008 37.0091 37.4976 38.432 36.5795 38.0648C36.3959 37.973 36.3041 37.8812 36.1664 37.7435C35.6615 37.1927 35.1107 36.6878 34.6058 36.137C34.1927 35.7239 33.7796 35.0812 33.2747 34.8058C32.4485 34.3468 32.0354 35.4943 31.8977 36.0911C31.5766 37.1468 31.4389 38.2484 31.1176 39.3041C30.6127 41.0944 29.5569 49.3106 28.0422 48.8057C27.7668 48.7139 27.5373 48.4844 27.3996 48.2549C26.0685 46.4189 26.0226 43.9861 25.9308 41.8288C25.7931 38.3861 26.1603 34.9435 26.0226 31.501C25.9308 29.3436 25.5177 27.1863 24.7833 25.1208C24.0488 23.0093 22.9013 21.0356 21.6161 19.1996C20.3566 17.3553 18.8327 15.6874 17.5195 13.8503C17.4658 13.7752 17.4192 13.6962 17.3642 13.6222C17.2877 13.5193 17.2123 13.4133 17.1427 13.3056C17.0163 13.1104 16.9242 12.8871 16.8883 12.6357C16.86 12.4659 16.8666 12.3135 16.9081 12.1786Z" fill="white"/>
<path d="M13.953 30.858C14.5956 31.7301 15.789 31.9596 16.5693 31.3629C17.3496 30.7662 17.4414 29.6186 16.7988 28.7465C16.1562 27.8744 14.9628 27.6449 14.1825 28.2416C13.4022 28.8383 13.3104 29.9858 13.953 30.858Z" fill="white"/>
<path d="M6.42412 31.0417C6.60772 30.7204 7.20443 30.7204 7.52574 30.6745C7.98475 30.6286 8.48966 30.6745 8.94866 30.7663C10.6011 31.0417 12.1617 31.7302 13.7682 32.2351C14.824 32.5564 16.3387 32.8318 17.1649 31.9138C17.4862 31.5466 17.6239 31.0876 17.7157 30.5827C17.8534 29.5729 17.7157 28.4254 17.6698 27.4156C17.6698 27.1401 17.6239 26.268 18.1747 26.6352C18.1933 26.6445 18.2118 26.6556 18.2299 26.6683C18.3749 26.7691 18.4565 26.9364 18.5503 27.0859C19.1882 28.1028 19.5184 29.3366 19.6895 30.4909C19.8272 31.4089 19.8731 32.281 19.8731 33.1532C19.8731 34.0253 19.8272 34.8515 19.8272 35.6318C19.8272 36.4121 19.919 37.1006 20.1485 37.7432C20.5616 38.9826 21.3878 40.0383 22.2599 41.0023C22.7189 41.4613 23.1779 41.9662 23.591 42.4253C23.7186 42.5529 24.3191 43.2712 23.8953 43.3033C23.8155 43.3093 23.747 43.3029 23.6698 43.2818C23.5181 43.24 23.3837 43.1207 23.2452 43.0458C22.8898 42.854 22.5129 42.6626 22.1681 42.4712C21.8468 42.2875 21.4337 41.9662 21.0665 41.9203C20.4698 41.7826 20.4698 42.6089 20.4698 42.9761C20.5157 43.7105 20.6075 44.399 20.6534 45.1334C20.6993 46.3727 21.6632 51.6513 20.6534 51.6513C20.5597 51.6513 20.4661 51.6274 20.3786 51.5857C20.2079 51.5044 20.0694 51.3686 19.9261 51.2451C18.89 50.3551 18.4176 48.9519 17.9452 47.7497C17.1649 45.6383 16.7059 43.4351 15.9256 41.3236C15.4207 39.9924 14.7322 38.753 13.906 37.6055C13.0338 36.458 11.9322 35.4482 10.7388 34.5761C9.61308 33.7101 8.4057 33.0076 7.27071 32.1602C7.13774 32.0609 6.95455 32.0312 6.83723 31.9138C6.7603 31.8369 6.66909 31.7743 6.58753 31.702C6.45749 31.5868 6.37551 31.4198 6.37124 31.2461C6.3695 31.1743 6.38299 31.1034 6.42412 31.0417Z" fill="white"/>
<path d="M24.0299 64.1404C23.8384 64.1404 23.6788 64.1037 23.5511 64.0302C23.4234 63.966 23.323 63.8833 23.2501 63.7824C23.1771 63.6814 23.1315 63.5988 23.1133 63.5345C23.3778 63.3142 23.583 63.0801 23.7289 62.8322C23.8749 62.5844 23.9798 62.3044 24.0436 61.9922C24.1074 61.6893 24.1394 61.3542 24.1394 60.987V55.1347C24.1394 54.8776 24.2124 54.6894 24.3583 54.5701C24.5042 54.4416 24.6912 54.3773 24.9192 54.3773C25.1472 54.3773 25.3342 54.4416 25.4802 54.5701C25.6261 54.6894 25.6991 54.8776 25.6991 55.1347V60.987C25.6991 61.3542 25.6672 61.7214 25.6033 62.0886C25.5395 62.465 25.4391 62.8093 25.3023 63.1214C25.1746 63.4335 25.0059 63.6814 24.7961 63.865C24.5863 64.0486 24.3309 64.1404 24.0299 64.1404ZM32.5704 60.987V59.7339H33.7606V60.987H32.5704ZM29.8475 60.987C29.3185 60.987 28.8351 60.8585 28.3973 60.6014C27.9686 60.3352 27.6312 59.9542 27.3849 59.4585C27.1386 58.9628 27.0155 58.3661 27.0155 57.6684C27.0155 56.631 27.2982 55.8232 27.8637 55.2448C28.4384 54.6665 29.2091 54.3773 30.1759 54.3773C30.8873 54.3773 31.4619 54.5242 31.8998 54.8179C32.3468 55.1025 32.5704 55.4651 32.5704 55.9058V60.987H31.0241V55.9058C30.9877 55.8232 30.8965 55.7589 30.7505 55.713C30.6046 55.6579 30.413 55.6304 30.1759 55.6304C29.6469 55.6304 29.2456 55.7956 28.9719 56.1261C28.7074 56.4566 28.5752 56.9707 28.5752 57.6684C28.5752 58.3293 28.7074 58.8388 28.9719 59.1969C29.2365 59.5549 29.6195 59.7339 30.1212 59.7339H32.5704V60.987H29.8475ZM30.901 64.1404C30.7186 64.1404 30.5635 64.1037 30.4358 64.0302C30.3081 63.966 30.2078 63.8833 30.1349 63.7824C30.0619 63.6814 30.0163 63.5988 29.998 63.5345C30.2626 63.3142 30.4678 63.0801 30.6137 62.8322C30.7596 62.5844 30.8646 62.3044 30.9284 61.9922C30.9922 61.6893 31.0241 61.3542 31.0241 60.987V59.7339H32.5704V60.987C32.5704 61.3542 32.5382 61.7214 32.4744 62.0886C32.4198 62.465 32.3239 62.8093 32.1871 63.1214C32.0595 63.4335 31.8906 63.6814 31.6808 63.865C31.471 64.0486 31.2111 64.1404 30.901 64.1404ZM33.7606 60.987V59.7339C33.8606 59.7339 33.929 59.789 33.9657 59.8992C34.0112 60.0093 34.0341 60.1608 34.0341 60.3536C34.0341 60.5464 34.0112 60.7024 33.9657 60.8218C33.929 60.9319 33.8606 60.987 33.7606 60.987ZM33.4631 60.987V59.7339H34.0103C34.2563 59.7339 34.4528 59.6651 34.5987 59.5274C34.7534 59.3897 34.8677 59.2152 34.9407 59.0041C35.0137 58.7838 35.0499 58.568 35.0499 58.3569V55.1622C35.0499 54.9419 35.1091 54.7583 35.228 54.6114C35.3556 54.4553 35.5562 54.3773 35.8298 54.3773C36.0942 54.3773 36.286 54.4553 36.4045 54.6114C36.5321 54.7583 36.5959 54.9419 36.5959 55.1622V58.3569C36.5959 58.8618 36.482 59.3116 36.2539 59.7064C36.035 60.1011 35.7343 60.4132 35.351 60.6427C34.9678 60.8723 34.5211 60.987 34.0103 60.987H33.4631ZM37.636 60.987C37.1343 60.987 36.6872 60.8723 36.2952 60.6427C35.9119 60.4132 35.6062 60.1011 35.3786 59.7064C35.1596 59.3116 35.0499 58.8618 35.0499 58.3569H36.5959C36.5959 58.568 36.6326 58.7838 36.7056 59.0041C36.7786 59.2152 36.8924 59.3897 37.0475 59.5274C37.2119 59.6651 37.4078 59.7339 37.636 59.7339H38.2515V60.987H37.636ZM38.2515 60.987V59.7339C38.352 59.7339 38.4204 59.789 38.4567 59.8992C38.5021 60.0093 38.5251 60.1608 38.5251 60.3536C38.5251 60.5464 38.5021 60.7024 38.4567 60.8218C38.4204 60.9319 38.352 60.987 38.2515 60.987ZM33.4631 60.987C33.3626 60.987 33.2942 60.9319 33.258 60.8218C33.2121 60.7024 33.1896 60.5464 33.1896 60.3536C33.1896 60.1608 33.2121 60.0093 33.258 59.8992C33.2942 59.789 33.3626 59.7339 33.4631 59.7339V60.987ZM35.8435 63.9063C35.5792 63.9063 35.3556 63.8145 35.1729 63.6309C34.9999 63.4565 34.9131 63.2453 34.9131 62.9975C34.9131 62.7496 34.9999 62.5339 35.1729 62.3503C35.3556 62.1758 35.5746 62.0886 35.8298 62.0886C36.0763 62.0886 36.286 62.1758 36.4591 62.3503C36.6418 62.5339 36.7327 62.7496 36.7327 62.9975C36.7327 63.2453 36.6418 63.4565 36.4591 63.6309C36.286 63.8145 36.0809 63.9063 35.8435 63.9063ZM37.9527 60.987V59.7339H40.306C40.8169 59.7339 41.3048 59.6559 41.7698 59.4998C42.2444 59.3438 42.6685 59.1372 43.0422 58.8802C43.4163 58.6139 43.7082 58.3156 43.918 57.9851C44.1277 57.6454 44.2328 57.3012 44.2328 56.9523C44.2328 56.53 44.0685 56.2041 43.7403 55.9746C43.4117 55.7451 42.9146 55.6304 42.249 55.6304C41.5922 55.6304 41.0951 55.7451 40.7577 55.9746C40.429 56.195 40.2652 56.5209 40.2652 56.9523C40.2652 57.3012 40.3698 57.6454 40.5796 57.9851C40.7985 58.3156 41.0905 58.6139 41.4554 58.8802C41.8295 59.1372 42.2536 59.3438 42.7278 59.4998C43.2019 59.6559 43.6898 59.7339 44.1915 59.7339H46.5449V60.987H44.1915C43.5622 60.987 42.9237 60.886 42.2761 60.6841C41.6289 60.4821 41.0359 60.2021 40.4974 59.8441C39.9595 59.4769 39.5262 59.05 39.198 58.5634C38.8698 58.0677 38.7055 57.5307 38.7055 56.9523C38.7055 56.4933 38.8101 56.1032 39.0199 55.7819C39.2297 55.4514 39.5083 55.1851 39.8548 54.9832C40.2106 54.772 40.5934 54.6206 41.0037 54.5288C41.4237 54.4278 41.8387 54.3773 42.249 54.3773C42.6594 54.3773 43.0697 54.4278 43.4801 54.5288C43.8996 54.6206 44.2829 54.7674 44.6294 54.9694C44.976 55.1714 45.2541 55.4376 45.4639 55.7681C45.6829 56.0894 45.7925 56.4841 45.7925 56.9523C45.7925 57.5307 45.6282 58.0677 45.3 58.5634C44.9806 59.05 44.5519 59.4769 44.0139 59.8441C43.4755 60.2021 42.8829 60.4821 42.2352 60.6841C41.5876 60.886 40.9445 60.987 40.306 60.987H37.9527ZM37.9527 60.987C37.8526 60.987 37.7842 60.9319 37.7475 60.8218C37.7021 60.7024 37.6791 60.5464 37.6791 60.3536C37.6791 60.1608 37.7021 60.0093 37.7475 59.8992C37.7842 59.789 37.8526 59.7339 37.9527 59.7339V60.987ZM46.5449 60.987V59.7339C46.6454 59.7339 46.7138 59.789 46.75 59.8992C46.7955 60.0093 46.8184 60.1608 46.8184 60.3536C46.8184 60.5464 46.7955 60.7024 46.75 60.8218C46.7138 60.9319 46.6454 60.987 46.5449 60.987ZM42.2628 53.4822C41.9979 53.4822 41.7744 53.395 41.5922 53.2206C41.4191 53.037 41.3324 52.8212 41.3324 52.5734C41.3324 52.3255 41.4191 52.1144 41.5922 51.94C41.7744 51.7563 41.9933 51.6646 42.249 51.6646C42.495 51.6646 42.7048 51.7563 42.8783 51.94C43.0605 52.1144 43.1519 52.3255 43.1519 52.5734C43.1519 52.8212 43.0605 53.037 42.8783 53.2206C42.7048 53.395 42.4996 53.4822 42.2628 53.4822ZM46.2506 60.987V59.7339H49.4793C49.981 59.7339 50.3643 59.5549 50.6287 59.1969C50.9022 58.8388 51.039 58.3293 51.039 57.6684C51.039 56.9707 50.9022 56.4566 50.6287 56.1261C50.3551 55.7956 49.9539 55.6304 49.4247 55.6304C49.1878 55.6304 48.996 55.6579 48.85 55.713C48.7132 55.7589 48.6223 55.8232 48.5764 55.9058V60.987H47.0305V55.9058C47.0305 55.4651 47.254 55.1025 47.7011 54.8179C48.1477 54.5242 48.7224 54.3773 49.4247 54.3773C50.3918 54.3773 51.1579 54.6665 51.7234 55.2448C52.2981 55.8232 52.585 56.631 52.585 57.6684C52.585 58.3661 52.4619 58.9628 52.2159 59.4585C51.9694 59.9542 51.6321 60.3352 51.2033 60.6014C50.7746 60.8585 50.2913 60.987 49.7533 60.987H46.2506ZM46.2506 60.987C46.1506 60.987 46.0822 60.9319 46.0455 60.8218C46 60.7024 45.9771 60.5464 45.9771 60.3536C45.9771 60.1608 46 60.0093 46.0455 59.8992C46.0822 59.789 46.1506 59.7339 46.2506 59.7339V60.987Z" fill="white"/>
</svg>
