
<svg width="256" height="135" viewBox="0 0 256 135" fill="none" xmlns="http://www.w3.org/2000/svg">
<path d="M203.368 0H6.97894C5.14361 0.00219669 3.38408 0.732256 2.0863 2.03003C0.788524 3.32781 0.0584711 5.08734 0.0562744 6.92267V28.0559C0.0584711 29.8913 0.788524 31.6508 2.0863 32.9486C3.38408 34.2463 5.14361 34.9764 6.97894 34.9786H203.368C205.203 34.9764 206.963 34.2463 208.261 32.9486C209.558 31.6508 210.288 29.8913 210.291 28.0559V6.92267C210.288 5.08734 209.558 3.32781 208.261 2.03003C206.963 0.732256 205.203 0.00219669 203.368 0ZM209.562 28.0559C209.559 29.6979 208.906 31.2719 207.745 32.433C206.584 33.594 205.01 34.2474 203.368 34.2498H6.97894C5.33697 34.2474 3.76293 33.594 2.60188 32.433C1.44082 31.2719 0.787478 29.6979 0.785063 28.0559V6.92267C0.787478 5.28069 1.44082 3.70666 2.60188 2.5456C3.76293 1.38455 5.33697 0.731204 6.97894 0.728788H203.368C205.01 0.731204 206.584 1.38455 207.745 2.5456C208.906 3.70666 209.559 5.28069 209.562 6.92267V28.0559Z" fill="#E6E6E6"/>
<path d="M33.5153 29.5384C31.1322 29.5384 28.8026 28.8317 26.8212 27.5078C24.8397 26.1838 23.2953 24.302 22.3834 22.1003C21.4714 19.8986 21.2328 17.4759 21.6977 15.1386C22.1626 12.8013 23.3102 10.6544 24.9953 8.96929C26.6804 7.28419 28.8273 6.13663 31.1646 5.67171C33.5019 5.20679 35.9246 5.44541 38.1263 6.35737C40.328 7.26934 42.2098 8.8137 43.5338 10.7952C44.8577 12.7766 45.5644 15.1062 45.5644 17.4893C45.5644 20.6849 44.2949 23.7497 42.0353 26.0093C39.7757 28.2689 36.7109 29.5384 33.5153 29.5384Z" fill="#E6E6E6"/>
<path d="M185.578 27.3267H56.9607C56.1876 27.3267 55.4462 27.0196 54.8996 26.473C54.3529 25.9263 54.0458 25.1849 54.0458 24.4118C54.0458 23.6387 54.3529 22.8973 54.8996 22.3506C55.4462 21.8039 56.1876 21.4968 56.9607 21.4968H185.578C186.351 21.4968 187.093 21.8039 187.639 22.3506C188.186 22.8973 188.493 23.6387 188.493 24.4118C188.493 25.1849 188.186 25.9263 187.639 26.473C187.093 27.0196 186.351 27.3267 185.578 27.3267Z" fill="#E6E6E6"/>
<path d="M143.675 14.9385H56.9578C56.1847 14.9385 55.4433 14.6314 54.8966 14.0848C54.35 13.5381 54.0428 12.7967 54.0428 12.0236C54.0428 11.2505 54.35 10.5091 54.8966 9.96241C55.4433 9.41575 56.1847 9.10864 56.9578 9.10864H143.675C144.448 9.10864 145.189 9.41575 145.736 9.96241C146.282 10.5091 146.59 11.2505 146.59 12.0236C146.59 12.7967 146.282 13.5381 145.736 14.0848C145.189 14.6314 144.448 14.9385 143.675 14.9385Z" fill="#E6E6E6"/>
<path d="M249.021 84.8952H52.632C50.7967 84.893 49.0372 84.1629 47.7394 82.8651C46.4416 81.5674 45.7115 79.8078 45.7094 77.9725V56.8397C45.7115 55.0043 46.4416 53.2448 47.7394 51.947C49.0372 50.6493 50.7967 49.9192 52.632 49.917H249.021C250.856 49.9192 252.616 50.6493 253.914 51.947C255.211 53.2448 255.941 55.0043 255.944 56.8397V77.9725C255.941 79.8078 255.211 81.5674 253.914 82.8651C252.616 84.1629 250.856 84.893 249.021 84.8952ZM52.632 50.6458C50.9899 50.6477 49.4155 51.3008 48.2544 52.462C47.0932 53.6232 46.44 55.1975 46.4381 56.8397V77.9725C46.4397 79.6149 47.0927 81.1895 48.2539 82.351C49.4151 83.5124 50.9897 84.1658 52.632 84.1676H249.021C250.663 84.1659 252.238 83.5128 253.399 82.3516C254.56 81.1904 255.213 79.616 255.215 77.9737V56.8397C255.213 55.1975 254.56 53.6232 253.399 52.462C252.238 51.3008 250.663 50.6477 249.021 50.6458H52.632Z" fill="#CCCCCC"/>
<path d="M79.1685 79.4551C76.7854 79.4551 74.4558 78.7485 72.4744 77.4245C70.4929 76.1005 68.9485 74.2187 68.0366 72.017C67.1246 69.8153 66.886 67.3927 67.3509 65.0554C67.8158 62.7181 68.9634 60.5711 70.6485 58.886C72.3336 57.2009 74.4805 56.0534 76.8178 55.5885C79.1551 55.1235 81.5778 55.3622 83.7795 56.2741C85.9812 57.1861 87.863 58.7305 89.1869 60.7119C90.5109 62.6934 91.2176 65.023 91.2176 67.406C91.2176 70.6017 89.9481 73.6664 87.6885 75.926C85.4289 78.1857 82.3641 79.4551 79.1685 79.4551Z" fill="#E6E6E6"/>
<path d="M231.231 77.244H102.614C101.841 77.244 101.099 76.9369 100.553 76.3902C100.006 75.8435 99.6989 75.1021 99.6989 74.329C99.6989 73.5559 100.006 72.8145 100.553 72.2678C101.099 71.7212 101.841 71.4141 102.614 71.4141H231.231C232.004 71.4141 232.746 71.7212 233.292 72.2678C233.839 72.8145 234.146 73.5559 234.146 74.329C234.146 75.1021 233.839 75.8435 233.292 76.3902C232.746 76.9369 232.004 77.244 231.231 77.244Z" fill="#E6E6E6"/>
<path d="M189.328 64.8555H102.611C101.838 64.8555 101.096 64.5484 100.55 64.0018C100.003 63.4551 99.696 62.7137 99.696 61.9406C99.696 61.1675 100.003 60.4261 100.55 59.8794C101.096 59.3327 101.838 59.0256 102.611 59.0256H189.328C190.101 59.0256 190.842 59.3327 191.389 59.8794C191.936 60.4261 192.243 61.1675 192.243 61.9406C192.243 62.7137 191.936 63.4551 191.389 64.0018C190.842 64.5484 190.101 64.8555 189.328 64.8555Z" fill="#E6E6E6"/>
<path d="M203.368 135H6.97894C5.14361 134.998 3.38408 134.268 2.0863 132.97C0.788524 131.672 0.0584711 129.913 0.0562744 128.077V106.944C0.0584711 105.109 0.788524 103.35 2.0863 102.052C3.38408 100.754 5.14361 100.024 6.97894 100.022H203.368C205.203 100.024 206.963 100.754 208.261 102.052C209.558 103.35 210.288 105.109 210.291 106.944V128.077C210.288 129.913 209.558 131.672 208.261 132.97C206.963 134.268 205.203 134.998 203.368 135ZM6.97894 100.749C5.3368 100.751 3.76245 101.404 2.60127 102.565C1.4401 103.726 0.78693 105.301 0.785063 106.943V128.076C0.78682 129.718 1.43994 131.292 2.60113 132.454C3.76231 133.615 5.33673 134.268 6.97894 134.27H203.368C205.01 134.268 206.585 133.615 207.746 132.454C208.907 131.293 209.56 129.718 209.562 128.076V106.944C209.561 105.302 208.908 103.727 207.746 102.566C206.585 101.404 205.01 100.751 203.368 100.749H6.97894Z" fill="#CCCCCC"/>
<path d="M33.5153 129.56C31.1322 129.56 28.8026 128.853 26.8212 127.529C24.8397 126.205 23.2953 124.323 22.3834 122.122C21.4714 119.92 21.2328 117.497 21.6977 115.16C22.1626 112.823 23.3102 110.676 24.9953 108.991C26.6804 107.306 28.8273 106.158 31.1646 105.693C33.5019 105.228 35.9246 105.467 38.1263 106.379C40.328 107.291 42.2098 108.835 43.5338 110.817C44.8577 112.798 45.5644 115.128 45.5644 117.511C45.5644 120.706 44.2949 123.771 42.0353 126.031C39.7757 128.29 36.7109 129.56 33.5153 129.56Z" fill="#E6E6E6"/>
<path d="M185.578 127.348H56.9607C56.1876 127.348 55.4462 127.041 54.8996 126.495C54.3529 125.948 54.0458 125.207 54.0458 124.434C54.0458 123.66 54.3529 122.919 54.8996 122.372C55.4462 121.826 56.1876 121.519 56.9607 121.519H185.578C186.351 121.519 187.093 121.826 187.639 122.372C188.186 122.919 188.493 123.66 188.493 124.434C188.493 125.207 188.186 125.948 187.639 126.495C187.093 127.041 186.351 127.348 185.578 127.348Z" fill="#E6E6E6"/>
<path d="M143.675 114.96H56.9578C56.1847 114.96 55.4433 114.653 54.8966 114.107C54.35 113.56 54.0428 112.818 54.0428 112.045C54.0428 111.272 54.35 110.531 54.8966 109.984C55.4433 109.437 56.1847 109.13 56.9578 109.13H143.675C144.448 109.13 145.189 109.437 145.736 109.984C146.282 110.531 146.59 111.272 146.59 112.045C146.59 112.818 146.282 113.56 145.736 114.107C145.189 114.653 144.448 114.96 143.675 114.96Z" fill="#E6E6E6"/>
</svg>
