<svg width="14" height="14" viewBox="0 0 14 14" fill="none" xmlns="http://www.w3.org/2000/svg">
<path d="M13.3953 14L8.04501 8.64976C7.61778 9.01348 7.12646 9.29502 6.57106 9.4944C6.01566 9.69378 5.45755 9.79346 4.89673 9.79346C3.52816 9.79346 2.36986 9.31973 1.42183 8.37227C0.473944 7.42481 0 6.26722 0 4.89951C0 3.53165 0.47373 2.37307 1.42119 1.42375C2.36865 0.474584 3.52624 0 4.89395 0C6.26181 0 7.4204 0.473944 8.36971 1.42183C9.31888 2.36986 9.79346 3.52816 9.79346 4.89673C9.79346 5.49044 9.68829 6.065 9.47795 6.6204C9.26761 7.17581 8.99155 7.65068 8.64976 8.04501L14 13.3955L13.3953 14ZM4.89673 8.939C6.03047 8.939 6.98761 8.54872 7.76817 7.76817C8.54872 6.98775 8.939 6.03061 8.939 4.89673C8.939 3.76285 8.54872 2.80571 7.76817 2.0253C6.98761 1.24474 6.03047 0.854466 4.89673 0.854466C3.76286 0.854466 2.80571 1.24474 2.0253 2.0253C1.24474 2.80571 0.854466 3.76285 0.854466 4.89673C0.854466 6.03061 1.24474 6.98775 2.0253 7.76817C2.80571 8.54872 3.76286 8.939 4.89673 8.939Z" fill="black" fill-opacity="0.36"/>
</svg>
