
<svg width="20" height="20" viewBox="0 0 20 20" fill="none" xmlns="http://www.w3.org/2000/svg">
<path fill-rule="evenodd" clipRule="evenodd" d="M16.6246 5.90864C16.6332 5.25772 16.3892 4.60407 15.8926 4.1074C15.3959 3.61074 14.7423 3.36673 14.0913 3.37539C14.0911 3.3754 14.0916 3.37539 14.0913 3.37539C13.7316 3.38029 13.3719 3.46237 13.0408 3.62164C12.9222 3.67871 12.8071 3.7457 12.6968 3.8226C12.6544 3.85222 12.5997 3.85898 12.5519 3.83915C12.5041 3.81933 12.4702 3.7759 12.4611 3.72497C12.4375 3.59262 12.4035 3.46388 12.36 3.33962C12.2385 2.99289 12.0427 2.68106 11.7918 2.42321C11.7916 2.42303 11.792 2.42339 11.7918 2.42321C11.3377 1.95682 10.7024 1.66663 10 1.66663C9.29763 1.66663 8.66289 1.95629 8.20875 2.42268C8.20858 2.42286 8.20892 2.42251 8.20875 2.42268C7.95782 2.68053 7.76155 2.99288 7.64005 3.33961C7.59651 3.46388 7.5625 3.59262 7.53891 3.72497C7.52983 3.7759 7.49593 3.81933 7.44814 3.83915C7.40032 3.85898 7.34566 3.85222 7.3032 3.8226C7.19294 3.7457 7.07786 3.67871 6.95921 3.62164C6.62811 3.46237 6.2692 3.3803 5.90943 3.3754C5.90919 3.3754 5.90968 3.37541 5.90943 3.3754C5.25852 3.36674 4.60413 3.61074 4.10746 4.1074C3.6108 4.60407 3.36679 5.25772 3.37546 5.90864C3.37545 5.90839 3.37546 5.90888 3.37546 5.90864C3.38035 6.2684 3.46243 6.62805 3.62169 6.95914C3.67877 7.07779 3.74576 7.19287 3.82266 7.30314C3.85228 7.3456 3.85904 7.40026 3.83921 7.44808C3.81939 7.49587 3.77596 7.52977 3.72503 7.53885C3.59268 7.56244 3.46393 7.59645 3.33966 7.64C2.99294 7.76149 2.68112 7.95724 2.42327 8.20817C2.42309 8.20835 2.42345 8.208 2.42327 8.20817C1.95688 8.66232 1.66669 9.29757 1.66669 9.99996C1.66669 10.7024 1.95635 11.3371 2.42274 11.7912C2.42257 11.7911 2.42292 11.7914 2.42274 11.7912C2.68059 12.0422 2.99294 12.2384 3.33966 12.3599C3.46393 12.4035 3.59268 12.4375 3.72503 12.4611C3.77596 12.4701 3.81939 12.5041 3.83921 12.5518C3.85904 12.5997 3.85228 12.6543 3.82266 12.6968C3.74576 12.807 3.67877 12.9221 3.62169 13.0408C3.46243 13.3719 3.38036 13.7308 3.37547 14.0905C3.37546 14.0908 3.37547 14.0903 3.37547 14.0905C3.3668 14.7415 3.6108 15.3958 4.10746 15.8925C4.60413 16.3892 5.25778 16.6332 5.9087 16.6245C5.90845 16.6245 5.90894 16.6245 5.9087 16.6245C6.26846 16.6196 6.6281 16.5375 6.95918 16.3783C7.07784 16.3212 7.19293 16.2542 7.3032 16.1773C7.34566 16.1477 7.40032 16.1409 7.44814 16.1608C7.49593 16.1806 7.52983 16.224 7.53891 16.275C7.56251 16.4073 7.59651 16.5361 7.64006 16.6603C7.76156 17.007 7.95731 17.3189 8.20824 17.5767C8.20806 17.5765 8.20841 17.5769 8.20824 17.5767C8.66238 18.0431 9.29763 18.3333 10 18.3333C10.7024 18.3333 11.3372 18.0436 11.7913 17.5772C11.7911 17.5774 11.7915 17.5771 11.7913 17.5772C12.0422 17.3194 12.2385 17.007 12.36 16.6603C12.4035 16.5361 12.4375 16.4073 12.4611 16.275C12.4702 16.224 12.5041 16.1806 12.5519 16.1608C12.5997 16.1409 12.6544 16.1477 12.6968 16.1773C12.8071 16.2542 12.9222 16.3212 13.0409 16.3783C13.3719 16.5375 13.7309 16.6196 14.0906 16.6245C14.0904 16.6245 14.0909 16.6245 14.0906 16.6245C14.7415 16.6332 15.3959 16.3892 15.8926 15.8925C16.3892 15.3958 16.6332 14.7422 16.6246 14.0913C16.6246 14.091 16.6246 14.0915 16.6246 14.0913C16.6197 13.7315 16.5376 13.3719 16.3784 13.0408C16.3213 12.9221 16.2543 12.8071 16.1774 12.6968C16.1478 12.6543 16.141 12.5997 16.1608 12.5518C16.1807 12.5041 16.2241 12.4701 16.275 12.4611C16.4074 12.4375 16.5361 12.4035 16.6604 12.3599C17.0071 12.2384 17.3189 12.0427 17.5768 11.7917C17.5766 11.7919 17.5769 11.7916 17.5768 11.7917C18.0432 11.3376 18.3334 10.7024 18.3334 9.99996C18.3334 9.29757 18.0437 8.66283 17.5773 8.20869C17.5771 8.20852 17.5775 8.20886 17.5773 8.20869C17.3195 7.95776 17.0071 7.76149 16.6604 7.64C16.5361 7.59645 16.4074 7.56244 16.275 7.53885C16.2241 7.52977 16.1807 7.49587 16.1608 7.44808C16.141 7.40026 16.1478 7.3456 16.1774 7.30314C16.2543 7.19287 16.3213 7.07778 16.3784 6.95913C16.5376 6.62804 16.6197 6.2684 16.6246 5.90864C16.6246 5.90839 16.6246 5.90888 16.6246 5.90864ZM14.7141 5.28591C14.4254 4.99723 13.9743 4.96366 13.6503 5.18964C13.1587 5.5325 12.5058 5.62431 11.9135 5.3787C11.3227 5.13372 10.9256 4.60816 10.8203 4.01745C10.751 3.62854 10.4083 3.33329 10 3.33329C9.59176 3.33329 9.24904 3.62854 9.17971 4.01745C9.07442 4.60816 8.67733 5.13371 8.08655 5.37869C7.49425 5.62431 6.84139 5.53249 6.34979 5.18964C6.02577 4.96366 5.57466 4.99723 5.28597 5.28591C4.99729 5.57459 4.96372 6.02571 5.1897 6.34973C5.53256 6.84133 5.62437 7.49419 5.37876 8.08649C5.13378 8.67727 4.60822 9.07436 4.01751 9.17965C3.6286 9.24898 3.33335 9.5917 3.33335 9.99996C3.33335 10.4082 3.6286 10.7509 4.01751 10.8203C4.60822 10.9256 5.13378 11.3227 5.37875 11.9134C5.62437 12.5057 5.53256 13.1586 5.1897 13.6502C4.96372 13.9742 4.99729 14.4253 5.28598 14.714C5.57466 15.0027 6.02577 15.0363 6.34979 14.8103C6.84138 14.4674 7.49424 14.3756 8.08655 14.6212C8.67732 14.8662 9.07442 15.3918 9.17972 15.9825C9.24904 16.3714 9.59176 16.6666 10 16.6666C10.4083 16.6666 10.751 16.3714 10.8203 15.9825C10.9256 15.3918 11.3227 14.8662 11.9135 14.6212C12.5058 14.3756 13.1587 14.4674 13.6503 14.8103C13.9743 15.0363 14.4254 15.0027 14.7141 14.714C15.0028 14.4253 15.0363 13.9742 14.8103 13.6502C14.4675 13.1586 14.3757 12.5057 14.6213 11.9134C14.8663 11.3227 15.3918 10.9256 15.9825 10.8203C16.3714 10.7509 16.6667 10.4082 16.6667 9.99996C16.6667 9.5917 16.3714 9.24898 15.9825 9.17965C15.3918 9.07436 14.8663 8.67727 14.6213 8.08649C14.3757 7.49419 14.4675 6.84132 14.8103 6.34972C15.0363 6.02571 15.0028 5.5746 14.7141 5.28591Z" fill="#72767C"/>
<path fill-rule="evenodd" clipRule="evenodd" d="M10 11.6666C10.9205 11.6666 11.6667 10.9204 11.6667 9.99996C11.6667 9.07948 10.9205 8.33329 10 8.33329C9.07955 8.33329 8.33335 9.07948 8.33335 9.99996C8.33335 10.9204 9.07955 11.6666 10 11.6666ZM10 13.3333C11.841 13.3333 13.3334 11.8409 13.3334 9.99996C13.3334 8.15901 11.841 6.66663 10 6.66663C8.15907 6.66663 6.66669 8.15901 6.66669 9.99996C6.66669 11.8409 8.15907 13.3333 10 13.3333Z" fill="#72767C"/>
</svg>