<svg width="19" height="17" viewBox="0 0 19 17" fill="none" xmlns="http://www.w3.org/2000/svg">
<path d="M9.06794 0.741795C9.26081 0.410661 9.73919 0.410661 9.93206 0.741794L12.4603 5.08249C12.5309 5.20379 12.6493 5.28981 12.7865 5.31952L17.696 6.38266C18.0706 6.46376 18.2184 6.91872 17.9631 7.20448L14.6161 10.9503C14.5225 11.055 14.4773 11.1942 14.4915 11.3338L14.9975 16.3316C15.0361 16.7128 14.6491 16.994 14.2984 16.8395L9.70162 14.8138C9.57317 14.7572 9.42683 14.7572 9.29838 14.8138L4.7016 16.8395C4.35093 16.994 3.96391 16.7128 4.00252 16.3316L4.50853 11.3338C4.52268 11.1942 4.47746 11.055 4.38392 10.9503L1.03694 7.20448C0.781612 6.91872 0.929438 6.46376 1.30396 6.38266L6.21348 5.31952C6.35068 5.28981 6.46906 5.20379 6.53972 5.08249L9.06794 0.741795Z" fill="#DFB300"/>
</svg>
