<svg width="58" height="58" viewBox="0 0 58 58" fill="none" xmlns="http://www.w3.org/2000/svg">
<rect x="0.5" y="0.227051" width="57" height="57" rx="12" fill="#A162F7" fill-opacity="0.12"/>
<path d="M24.4054 35.7616L24.414 35.7699L24.4227 35.7616L40.8767 20.0156C41.0565 19.8436 41.2682 19.7519 41.5122 19.7405C41.755 19.7293 41.9781 19.8205 42.182 20.0156C42.3864 20.2113 42.4875 20.4209 42.4875 20.6448C42.4875 20.8689 42.3864 21.0786 42.182 21.2739L42.1906 21.283L42.182 21.274L25.4625 37.2847C25.1625 37.5714 24.8132 37.7146 24.414 37.7146C24.0148 37.7146 23.6655 37.5714 23.3655 37.2847L15.7947 30.0396C15.615 29.8676 15.5213 29.6637 15.513 29.4274C15.5047 29.192 15.6017 28.9767 15.8059 28.7813C16.01 28.5859 16.2292 28.4891 16.4637 28.4891C16.6985 28.4891 16.9178 28.586 17.1219 28.7813L24.4054 35.7616Z" fill="#252525" stroke="#A162F7" stroke-width="0.025"/>
</svg>
